<svg width="21" height="22" viewBox="0 0 21 22" fill="none" xmlns="http://www.w3.org/2000/svg">
    <path fill-rule="evenodd" clip-rule="evenodd" d="M14.0959 0.907104H6.5585C3.09006 0.907104 0.277344 3.7319 0.277344 7.21523V14.785C0.277344 18.2683 3.09006 21.0931 6.5585 21.0931H14.0959C17.5643 21.0931 20.3771 18.2683 20.3771 14.785V7.21523C20.377 3.7319 17.5643 0.907104 14.0959 0.907104ZM18.4927 14.785C18.4927 17.2199 16.5204 19.2007 14.0959 19.2007H6.5585C4.13396 19.2007 2.16168 17.2199 2.16168 14.785V7.21523C2.16168 4.78028 4.13396 2.79953 6.5585 2.79953H14.0959C16.5204 2.79953 18.4927 4.78028 18.4927 7.21523V14.785H18.4927ZM10.3276 5.9537C7.55265 5.9537 5.30273 8.21328 5.30273 11.0002C5.30273 13.7871 7.55265 16.0467 10.3276 16.0467C13.1026 16.0467 15.3526 13.7871 15.3526 11.0002C15.3526 8.21328 13.1026 5.9537 10.3276 5.9537ZM10.3276 14.1543C8.59655 14.1543 7.18707 12.7387 7.18707 11.0002C7.18707 9.2604 8.59655 7.84613 10.3276 7.84613C12.0587 7.84613 13.4682 9.2604 13.4682 11.0002C13.4682 12.7387 12.0587 14.1543 10.3276 14.1543ZM16.3996 16.4253C16.3996 16.7967 16.0999 17.0977 15.7301 17.0977C15.3603 17.0977 15.0605 16.7967 15.0605 16.4253C15.0605 16.0539 15.3603 15.7529 15.7301 15.7529C16.0999 15.7529 16.3996 16.0539 16.3996 16.4253Z" fill="#006ED2"/>
</svg>
