<svg width="89" height="96" viewBox="0 0 89 96" fill="none" xmlns="http://www.w3.org/2000/svg">
<path d="M88.7758 49.9187C88.7758 74.8626 68.551 95.0874 43.6071 95.0874C18.6632 95.0874 2.82048 78.9076 8.21375 58.6828C13.607 38.458 33.8318 18.2332 53.3824 13.5141C72.933 8.79501 88.7758 24.9748 88.7758 49.9187Z" fill="#FFE600"/>
<path d="M31.4737 74.5255H55.0693C57.4288 74.5255 59.1142 72.8401 59.1142 70.4805C59.1142 68.121 57.4288 66.4356 55.0693 66.4356H41.9232L38.5524 63.4019C36.867 62.0535 34.5074 61.0423 32.1479 61.0423H23.0467C20.3501 61.0423 17.9905 62.0535 16.3051 63.7389L3.49609 76.548" stroke="#2A4F5E" stroke-width="2" stroke-miterlimit="10" stroke-linecap="round"/>
<path d="M20.6934 93.0648L24.0642 90.0311C25.4125 89.0198 27.0979 88.3457 28.7833 88.3457H52.3788C54.4013 88.3457 56.0867 87.6715 57.435 86.3232L82.0418 61.3793C84.0643 59.3568 83.7272 56.3231 82.0418 54.6377C80.3564 52.9523 77.6598 52.9523 75.6373 54.3006L58.4463 67.7838" stroke="#2A4F5E" stroke-width="2" stroke-miterlimit="10" stroke-linecap="round"/>
<path d="M71.5879 36.0983H79.3407V45.1995C79.3407 47.8961 79.0036 50.5927 77.9924 52.9523" stroke="#2A4F5E" stroke-width="2" stroke-miterlimit="10" stroke-linecap="round"/>
<path d="M59.793 36.0983H65.8604" stroke="#2A4F5E" stroke-width="2" stroke-miterlimit="10" stroke-linecap="round"/>
<path d="M24.0577 60.7052C20.3498 56.6603 17.9902 51.267 17.9902 45.5366V36.4355H54.0577" stroke="#2A4F5E" stroke-width="2" stroke-miterlimit="10" stroke-linecap="round"/>
<path d="M21.0238 36.0984C19.3384 25.986 22.3721 20.5928 30.462 20.5928C33.4957 20.5928 36.1923 21.2669 38.889 22.6153C44.9564 25.3119 49.0014 29.3568 49.3384 36.0984" stroke="#2A4F5E" stroke-width="2" stroke-miterlimit="10" stroke-linecap="round"/>
<path d="M21.3628 25.986L13.2729 17.559C13.2729 17.8961 13.2729 17.8961 12.9358 18.2332C11.2504 23.2894 4.17176 23.9635 1.47513 19.2444C0.463887 16.8849 1.13805 14.1882 2.82345 12.5028C4.84593 10.4804 6.86839 9.8062 10.2392 10.4804C9.90211 7.44665 10.9134 4.75001 12.9358 3.06461C14.9583 0.705055 18.3291 0.367976 20.6887 2.05337C20.6887 2.05337 20.6887 2.05337 21.0257 2.39045C24.0595 4.75001 23.3853 9.8062 20.3516 11.8287C19.6774 12.1658 19.0033 12.8399 17.992 13.177L25.7448 21.604" stroke="#2A4F5E" stroke-width="2" stroke-miterlimit="10" stroke-linecap="round"/>
<path d="M32.8262 20.9299C36.534 11.1546 47.9948 8.79504 53.0509 18.9074C59.1184 14.1883 66.5341 18.2333 65.5229 25.3119C71.9274 24.6378 76.9836 29.0198 76.3094 36.0985" stroke="#2A4F5E" stroke-width="2" stroke-miterlimit="10" stroke-linecap="round"/>
<path d="M47.9919 43.8512C42.9357 39.132 36.5312 42.5028 37.2054 48.5703C38.2166 53.9635 42.5986 57.6714 47.9919 60.3681C53.3852 57.6714 57.4301 53.9635 58.7785 48.5703C59.4526 42.1658 52.711 38.795 47.9919 43.8512Z" stroke="#2A4F5E" stroke-width="2" stroke-miterlimit="10" stroke-linecap="round"/>
</svg>
