<svg width="96" height="94" viewBox="0 0 96 94" fill="none" xmlns="http://www.w3.org/2000/svg">
<path d="M37.6393 3.0224C62.5832 3.0224 82.8079 23.2472 82.8079 48.1911C82.8079 73.135 66.6281 88.9777 46.4033 83.2473C26.1786 77.517 5.95379 57.6293 0.897592 38.0787C-4.1586 18.5281 12.6954 3.0224 37.6393 3.0224Z" fill="#FFE600"/>
<path d="M13.0352 9.76407H21.7992C22.4734 9.76407 23.4846 9.42699 23.8217 9.08991L31.2375 3.69664C33.597 2.01124 36.6307 1 39.6644 1H60.9005C63.26 1 64.9454 2.6854 64.9454 5.04495C64.9454 7.40451 63.26 9.08991 60.9005 9.08991H48.7656H83.1477C85.5073 9.08991 87.1927 10.7753 87.1927 13.1349C87.1927 15.4944 85.5073 17.1798 83.1477 17.1798H69.3275" stroke="#2A4F5E" stroke-width="2" stroke-miterlimit="10" stroke-linecap="round"/>
<path d="M66.9668 17.1797H90.5624C92.9219 17.1797 94.6073 18.8651 94.6073 21.2247C94.6073 23.5843 92.9219 25.2697 90.5624 25.2697H66.9668" stroke="#2A4F5E" stroke-width="2" stroke-miterlimit="10" stroke-linecap="round"/>
<path d="M41.0116 73.4721H64.6072C66.9667 73.4721 68.6521 71.7867 68.6521 69.4271C68.6521 67.0676 66.9667 65.3822 64.6072 65.3822H51.4611L48.0903 62.3484C46.4049 61.0001 44.0453 59.9889 41.6858 59.9889H32.9217C30.2251 59.9889 27.8655 61.0001 26.1801 62.6855L13.3711 75.4945" stroke="#2A4F5E" stroke-width="2" stroke-miterlimit="10" stroke-linecap="round"/>
<path d="M70.6758 25.6068H83.4848C85.8444 25.6068 87.5298 27.2922 87.5298 29.6518C87.5298 32.0113 85.8444 33.6967 83.4848 33.6967H70.6758" stroke="#2A4F5E" stroke-width="2" stroke-miterlimit="10" stroke-linecap="round"/>
<path d="M70.6758 33.6968H74.0466C76.4061 33.6968 78.0915 35.3822 78.0915 37.7417C78.0915 40.1013 76.4061 41.7867 74.0466 41.7867H70.6758" stroke="#2A4F5E" stroke-width="2" stroke-miterlimit="10" stroke-linecap="round"/>
<path d="M13.0352 32.3484H21.4621C22.4734 32.3484 23.8217 32.6855 24.4959 33.3596L31.2375 38.7529" stroke="#2A4F5E" stroke-width="2" stroke-miterlimit="10" stroke-linecap="round"/>
<path d="M45.0535 23.9215C47.0759 23.2473 49.0984 22.5732 51.1209 22.5732C59.885 22.5732 66.9636 29.6518 66.9636 38.4159C66.9636 47.18 59.885 54.2587 51.458 54.2587C43.031 54.2587 35.6152 47.18 35.6152 38.4159C35.6152 37.4047 35.6152 36.3934 35.9523 35.3822" stroke="#2A4F5E" stroke-width="2" stroke-miterlimit="10" stroke-linecap="round"/>
<path d="M37.3027 31.0002C38.314 28.9777 39.6623 27.2923 41.3477 25.944" stroke="#2A4F5E" stroke-width="2" stroke-miterlimit="10" stroke-linecap="round"/>
<path d="M30.2246 92.0116L33.5954 88.9779C34.9437 87.9667 36.6291 87.2925 38.3145 87.2925H61.9101C63.9326 87.2925 65.618 86.6183 66.9663 85.27L91.5731 60.3261C93.5956 58.3037 93.2585 55.2699 91.5731 53.5845C89.8877 51.8991 87.1911 51.8991 85.1686 53.2475L67.9775 66.7307" stroke="#2A4F5E" stroke-width="2" stroke-miterlimit="10" stroke-linecap="round"/>
<path d="M52.4748 46.8427V47.854C52.4748 48.5281 51.8007 48.8652 51.4636 48.8652C50.7894 48.8652 50.4523 48.191 50.4523 47.854V46.8427C48.4299 46.5056 46.7445 45.4944 46.0703 43.4719C46.0703 43.1348 46.0703 43.1348 46.0703 42.7978C46.0703 41.7865 46.7445 41.4495 47.4186 41.4495C48.0928 41.4495 48.4299 41.7865 48.4299 42.4607C48.7669 44.1461 50.1153 44.8202 51.4636 44.8202C53.149 44.8202 54.1602 43.809 54.1602 42.7978C54.1602 39.427 46.0703 40.1011 46.0703 34.7079C46.0703 32.3483 47.7557 30.6629 50.1153 30.3258V29.3146C50.1153 28.6404 50.7894 28.3033 51.1265 28.3033C51.8007 28.3033 52.1377 28.9775 52.1377 29.3146V30.3258C54.1602 30.6629 55.5085 31.6741 56.1827 33.3595C56.1827 33.6966 56.1827 33.6966 56.1827 34.0337C56.1827 34.7079 55.5085 35.382 54.8344 35.382C54.4973 35.382 53.8231 35.0449 53.4861 34.3708C53.149 33.3595 52.1377 32.3483 50.7894 32.3483C49.4411 32.3483 48.4299 33.0225 48.4299 34.3708C48.4299 38.0787 56.5198 36.7303 56.5198 42.1236C56.8569 44.8202 55.1715 46.5056 52.4748 46.8427Z" fill="#2A4F5E"/>
</svg>
