<svg width="93" height="85" viewBox="0 0 93 85" fill="none" xmlns="http://www.w3.org/2000/svg">
<path d="M84.9327 39.427C84.9327 64.3708 64.708 84.5956 39.7641 84.5956C14.8202 84.5956 -1.02256 68.4158 4.70779 48.191C10.1011 27.9663 30.3258 7.74148 49.8765 3.02236C69.4271 -1.69675 84.9327 14.4831 84.9327 39.427Z" fill="#FFE600"/>
<path d="M64.7059 62.6855L81.5598 45.8315C83.2452 44.1461 83.2452 41.4495 81.5598 40.1011C79.8744 38.4157 77.1778 38.4157 75.8295 40.1011L66.7284 49.2023L62.3463 49.5394C59.9868 49.8765 57.9643 50.5506 56.2789 52.236L49.8744 58.6405C48.189 60.3259 47.1777 63.0226 47.1777 65.3821V83.5844" stroke="#2A4F5E" stroke-width="2" stroke-miterlimit="10" stroke-linecap="round"/>
<path d="M85.6104 61.3372L89.3183 57.6294C90.6666 56.281 91.3408 54.2586 91.3408 52.5732V17.5169C91.3408 14.8203 89.3183 12.7978 86.6216 12.7978C84.2621 12.7978 82.2396 14.4832 81.9025 17.1798L79.543 38.7529" stroke="#2A4F5E" stroke-width="2" stroke-miterlimit="10" stroke-linecap="round"/>
<path d="M78.8633 68.0787L80.2116 66.7304L81.5599 65.3821" stroke="#2A4F5E" stroke-width="2" stroke-miterlimit="10" stroke-linecap="round"/>
<path d="M70.1016 83.2475L70.4386 78.8655C70.4386 77.1801 71.1128 75.4947 72.4611 74.4834L74.4836 72.4609" stroke="#2A4F5E" stroke-width="2" stroke-miterlimit="10" stroke-linecap="round"/>
<path d="M27.9657 62.6855L11.1117 45.8315C9.42631 44.1461 9.42631 41.4495 11.1117 40.1011C12.7971 38.4157 15.4937 38.4157 16.842 40.1011L25.9432 49.2023L30.3252 49.5394C32.6848 49.8765 34.7073 50.5506 36.3927 52.236L42.7972 58.6405C44.4826 60.3259 45.4938 63.0226 45.4938 65.3821V83.5844" stroke="#2A4F5E" stroke-width="2" stroke-miterlimit="10" stroke-linecap="round"/>
<path d="M22.236 83.2474L21.8989 78.8654C21.8989 77.18 21.2248 75.4946 19.8764 74.4833L3.02247 57.6294C1.67415 56.281 1 54.2586 1 52.5732V17.5169C1 14.8203 3.02246 12.7978 5.71909 12.7978C8.07865 12.7978 10.1011 14.4832 10.4382 17.1798L12.7978 38.7529" stroke="#2A4F5E" stroke-width="2" stroke-miterlimit="10" stroke-linecap="round"/>
<path d="M41.7836 3.35951C40.0982 2.34828 38.7499 1.67412 37.0645 1.33704" stroke="#2A4F5E" stroke-width="2" stroke-miterlimit="10" stroke-linecap="round"/>
<path d="M31.6768 1C23.2498 1.67416 16.5082 9.08991 18.1936 19.5394C20.8902 33.3596 32.3509 43.1349 46.5083 50.5507C60.6656 43.1349 72.1263 33.3596 74.8229 19.5394C77.1825 3.35956 59.9914 -5.40451 47.1824 6.73035" stroke="#2A4F5E" stroke-width="2" stroke-miterlimit="10" stroke-linecap="round"/>
<path d="M32.6843 41.1125C36.0551 35.045 35.381 31.0001 30.3248 29.3147C25.2686 28.3034 23.2461 25.2697 23.2461 20.8877L27.9652 17.854C29.6506 12.1236 34.7068 15.4944 36.3922 12.7978C37.4034 11.4495 37.0664 9.42698 36.3922 7.74158C40.1001 8.07866 43.8079 10.1011 47.8529 15.8315C50.8866 23.9214 47.5158 32.6855 41.1113 31.3371C34.3697 28.3034 39.4259 14.8202 50.8866 15.1573C52.572 15.1573 54.5945 15.8315 56.2799 16.5056C56.954 16.8427 57.6282 16.5056 58.3024 16.1686L64.3698 13.4719C66.0552 12.7978 67.7406 13.4719 68.4148 15.1573C68.7518 15.8315 70.4372 19.8764 69.426 21.8989C67.7406 25.2697 63.0215 27.6293 63.0215 27.6293C60.999 30.3259 61.6732 34.7079 62.6844 39.7641" stroke="#2A4F5E" stroke-width="2" stroke-miterlimit="10" stroke-linecap="round"/>
<path d="M52.5741 22.5731C52.2371 19.8765 54.2595 18.8653 56.282 20.8877" stroke="#2A4F5E" stroke-width="2" stroke-miterlimit="10" stroke-linecap="round"/>
<path d="M60.3242 23.2473C63.0209 25.2698 65.7175 24.9327 68.7512 21.899" stroke="#2A4F5E" stroke-width="2" stroke-miterlimit="10" stroke-linecap="round"/>
<path d="M44.1466 34.3709C43.1353 37.7417 40.4387 40.7754 36.0566 43.4721" stroke="#2A4F5E" stroke-width="2" stroke-miterlimit="10" stroke-linecap="round"/>
<path d="M32.6842 19.8764C33.4289 19.8764 34.0326 19.2727 34.0326 18.5281C34.0326 17.7834 33.4289 17.1797 32.6842 17.1797C31.9396 17.1797 31.3359 17.7834 31.3359 18.5281C31.3359 19.2727 31.9396 19.8764 32.6842 19.8764Z" fill="#2A4F5E"/>
<path d="M63.0234 13.472C63.3605 16.5057 66.3942 17.1799 68.7538 15.1574L66.3942 12.4608L63.0234 13.472Z" fill="#2A4F5E"/>
</svg>
