<svg width="13" height="13" viewBox="0 0 13 13" fill="none" xmlns="http://www.w3.org/2000/svg">
    <path d="M6.35703 9.20178H7.55703V5.60178H6.35703V9.20178ZM6.95703 0.201782C3.64203 0.201782 0.957031 2.88678 0.957031 6.20178C0.957031 9.51678 3.64203 12.2018 6.95703 12.2018C10.272 12.2018 12.957 9.51678 12.957 6.20178C12.957 2.88678 10.272 0.201782 6.95703 0.201782ZM6.95703 11.0018C4.31103 11.0018 2.15703 8.84778 2.15703 6.20178C2.15703 3.55578 4.31103 1.40178 6.95703 1.40178C9.60303 1.40178 11.757 3.55578 11.757 6.20178C11.757 8.84778 9.60303 11.0018 6.95703 11.0018ZM6.35703 4.40178H7.55703V3.20178H6.35703V4.40178Z" fill="#006ED2"/>
</svg>
