<svg width="144" height="30" viewBox="0 0 144 30" fill="none" xmlns="http://www.w3.org/2000/svg">
<path fill-rule="evenodd" clip-rule="evenodd" d="M120.984 23.3151L120.65 23.0294C119.85 22.3534 119.717 21.1061 120.441 20.3158L128.968 10.5752C129.645 9.77538 130.893 9.64208 131.684 10.3657L132.017 10.6418C132.817 11.3179 132.951 12.5652 132.227 13.3555L123.699 23.0961C123.013 23.8959 121.822 23.9911 120.984 23.3151Z" fill="url(#paint0_linear_1037_881)"/>
<path opacity="0.4" fill-rule="evenodd" clip-rule="evenodd" d="M127.824 12.2604L127.662 12.0699L126.348 13.5648L126.491 13.7267C128.739 15.9738 127.777 18.2495 127.262 19.0397L127.453 18.8303C127.758 18.478 128.225 17.9448 128.72 17.3544C129.225 16.4784 129.949 14.3742 127.824 12.2604Z" fill="url(#paint1_linear_1037_881)"/>
<path opacity="0.4" fill-rule="evenodd" clip-rule="evenodd" d="M130.635 15.1931L130.988 14.7932C131.007 14.7456 131.054 14.698 131.083 14.6504C130.711 15.0693 130.311 15.5169 129.939 15.9644C130.206 15.6597 130.444 15.4026 130.635 15.1931Z" fill="url(#paint2_radial_1037_881)"/>
<path fill-rule="evenodd" clip-rule="evenodd" d="M132.274 10.8799L123.746 1.13928C123.07 0.339471 121.822 0.206169 121.031 0.929809L120.707 1.20594C119.907 1.88197 119.773 3.1293 120.497 3.91959L127.691 12.0701L127.853 12.2605C129.987 14.3933 129.263 16.4976 128.72 17.3831C129.139 16.888 129.568 16.4024 129.959 15.9549C130.33 15.5074 130.73 15.0694 131.111 14.6409C131.483 14.2219 131.836 13.822 132.074 13.565C132.884 12.7747 132.998 11.6797 132.274 10.8799Z" fill="url(#paint3_linear_1037_881)"/>
<path fill-rule="evenodd" clip-rule="evenodd" d="M131.806 23.3151L131.473 23.0294C130.672 22.3534 130.539 21.1061 131.263 20.3158L139.79 10.5752C140.467 9.77538 141.715 9.64208 142.506 10.3657L142.839 10.6418C143.64 11.3179 143.773 12.5652 143.049 13.3555L134.522 23.0961C133.845 23.8959 132.645 23.9911 131.806 23.3151Z" fill="url(#paint4_linear_1037_881)"/>
<path opacity="0.4" fill-rule="evenodd" clip-rule="evenodd" d="M138.733 12.1654L138.571 11.975L137.256 13.4699L137.399 13.6317C139.647 15.8788 138.685 18.1545 138.171 18.9448L138.361 18.7353C138.666 18.383 139.133 17.8498 139.628 17.2595C140.143 16.3835 140.867 14.2792 138.733 12.1654Z" fill="url(#paint5_linear_1037_881)"/>
<path opacity="0.4" fill-rule="evenodd" clip-rule="evenodd" d="M141.428 15.1931L141.78 14.7932C141.799 14.7456 141.847 14.698 141.875 14.6504C141.504 15.0693 141.104 15.5169 140.723 15.9644C141.008 15.6597 141.266 15.4026 141.428 15.1931Z" fill="url(#paint6_radial_1037_881)"/>
<path fill-rule="evenodd" clip-rule="evenodd" d="M143.069 10.8799L134.541 1.13928C133.865 0.339471 132.617 0.206169 131.826 0.929809L131.502 1.20594C130.702 1.88197 130.568 3.1293 131.292 3.91959L138.486 12.0701L138.648 12.2605C140.782 14.3933 140.048 16.4976 139.515 17.3831C139.934 16.888 140.363 16.4024 140.753 15.9549C141.125 15.5074 141.525 15.0694 141.906 14.6409C142.278 14.2219 142.63 13.822 142.869 13.565C143.678 12.7747 143.802 11.6797 143.069 10.8799Z" fill="url(#paint7_linear_1037_881)"/>
<path fill-rule="evenodd" clip-rule="evenodd" d="M1.20981 23.22C0.885867 22.8962 0.695312 22.4011 0.695312 21.7917V2.52004C0.695312 1.89162 0.885867 1.3965 1.2765 0.996589C1.67667 0.596682 2.17211 0.415772 2.80094 0.415772C3.42977 0.415772 3.99191 0.606204 4.37302 0.996589C4.77319 1.3965 4.96374 1.8821 4.96374 2.52004V20.2873H14.1675C15.4824 20.2873 16.1588 20.8681 16.1588 22.0202C16.1588 23.1628 15.4824 23.7532 14.1675 23.7532H2.68661C2.05778 23.7627 1.56234 23.5723 1.20981 23.22ZM19.484 23.3628C19.0839 22.9629 18.9028 22.4487 18.9028 21.7917V2.501C18.9028 1.87257 19.0934 1.37745 19.484 0.977545C19.8747 0.577639 20.3701 0.387207 21.0085 0.387207C21.6468 0.387207 22.1994 0.577639 22.5805 0.977545C22.9807 1.37745 23.1617 1.86305 23.1617 2.501V21.7917C23.1617 22.4202 22.9712 22.9629 22.5805 23.3628C22.1804 23.7627 21.6659 23.9436 21.0085 23.9436C20.3987 23.9436 19.8842 23.7627 19.484 23.3628Z" fill="#4B4C4B"/>
<path d="M47.1518 26.9712C47.39 27.3711 47.5234 27.7425 47.5234 28.1424C47.5234 28.6375 47.3329 29.0565 46.9422 29.3612C46.5516 29.6658 46.0752 29.8563 45.5607 29.8563C45.1605 29.8563 44.7889 29.7611 44.4364 29.5706C44.1029 29.3802 43.7981 29.1041 43.5694 28.7518L41.6448 25.5716C41.3399 25.0574 40.9397 24.6861 40.4538 24.448C39.9584 24.21 39.3295 24.0767 38.5292 24.0767C36.2521 24.0767 34.3084 23.5815 32.6506 22.6484C30.9832 21.6677 29.7256 20.2871 28.83 18.5256C27.9439 16.726 27.4961 14.6122 27.4961 12.2318C27.4961 9.82285 27.963 7.73763 28.83 5.92853C29.7161 4.14799 31.0118 2.7864 32.6506 1.80568C34.318 0.815435 36.2616 0.36792 38.5292 0.36792C40.7587 0.36792 42.7214 0.863042 44.3602 1.79616C46.0276 2.77688 47.2852 4.15751 48.1808 5.919C49.0669 7.69954 49.5147 9.80381 49.5147 12.2223C49.5147 14.8217 49.0002 17.0878 47.9426 18.9445C46.9136 20.8203 45.4082 22.1724 43.4646 23.0388C44.4745 23.3626 45.2939 24.1148 45.9704 25.2193C45.9799 25.2097 47.1518 26.9712 47.1518 26.9712ZM43.4741 18.4685C44.6651 16.9926 45.2749 14.8883 45.2749 12.1747C45.2749 9.41343 44.6651 7.34724 43.4741 5.8714C42.2831 4.39555 40.6444 3.69095 38.4816 3.69095C36.3283 3.69095 34.661 4.41459 33.47 5.8714C32.279 7.34724 31.6692 9.4039 31.6692 12.1747C31.6692 14.9359 32.279 17.0021 33.47 18.4685C34.661 19.9443 36.3569 20.6679 38.4816 20.6679C40.6158 20.6679 42.2831 19.9443 43.4741 18.4685ZM54.6692 23.3626C54.269 22.9626 54.088 22.4485 54.088 21.7915V2.56741C54.088 1.93898 54.2786 1.44386 54.6502 1.09156C55.0217 0.767827 55.5172 0.577395 56.146 0.577395H64.2255C66.7123 0.577395 68.6274 1.18678 70.0089 2.45315C71.3904 3.67191 72.0955 5.42388 72.0955 7.65193C72.0955 9.87998 71.3904 11.632 70.0089 12.8698C68.6274 14.1361 66.7028 14.7455 64.2255 14.7455H58.3469V21.8201C58.3469 22.4961 58.1564 23.0103 57.7562 23.3911C57.356 23.791 56.8415 23.9719 56.1841 23.9719C55.5648 23.9434 55.0217 23.7625 54.6692 23.3626ZM63.692 11.5177C66.5979 11.5177 68.0747 10.2323 68.0747 7.69954C68.0747 5.1668 66.5979 3.88139 63.692 3.88139H58.3469V11.4891L63.692 11.5177ZM94.5238 22.0771C94.5238 22.5723 94.3141 22.9912 93.914 23.3626C93.5138 23.6863 93.047 23.8767 92.5134 23.8767C92.1895 23.8767 91.8369 23.7815 91.532 23.6006C91.2272 23.4102 90.9699 23.1055 90.8079 22.7341L88.8166 18.3352H77.2881L75.2968 22.7341C75.1062 23.134 74.8776 23.4102 74.5727 23.6006C74.2678 23.791 73.9438 23.8862 73.5627 23.8862C73.0673 23.8862 72.5814 23.6958 72.1812 23.3721C71.762 23.0483 71.5714 22.6008 71.5714 22.0867C71.5714 21.801 71.6381 21.5058 71.762 21.2202L80.8419 1.70094C81.0325 1.28199 81.3374 0.929694 81.7566 0.691654C82.1567 0.463136 82.576 0.36792 83.0428 0.36792C83.5097 0.36792 83.9289 0.482179 84.3291 0.691654C84.7292 0.929694 85.0341 1.25343 85.2437 1.70094L94.3618 21.2012C94.4571 21.5154 94.5238 21.7724 94.5238 22.0771ZM78.7172 15.0502H87.4065L83.0428 5.30962L78.7172 15.0502Z" fill="#4B4C4B"/>
<path fill-rule="evenodd" clip-rule="evenodd" d="M110.93 0.415528C111.426 0.415528 111.864 0.605959 112.264 0.996344C112.664 1.38673 112.845 1.8152 112.845 2.37697C112.845 2.79592 112.683 3.24344 112.35 3.64335L104.88 12.7555V21.8677C104.88 22.5437 104.689 23.0579 104.299 23.4578C103.899 23.8577 103.413 24.0195 102.803 24.0195C102.174 24.0195 101.631 23.8291 101.231 23.4578C100.831 23.0864 100.65 22.5723 100.65 21.8677V12.765L93.2276 3.63382C92.8846 3.2244 92.7227 2.80545 92.7227 2.35793C92.7227 1.84377 92.9132 1.37721 93.3038 0.977301C93.704 0.577395 94.1709 0.386963 94.6377 0.386963C95.1999 0.386963 95.6477 0.625003 96.0478 1.1106L102.774 9.44199L109.472 1.1106C109.873 0.653567 110.368 0.415528 110.93 0.415528Z" fill="#4B4C4B"/>
<defs>
<linearGradient id="paint0_linear_1037_881" x1="121.539" y1="20.1181" x2="131.596" y2="14.3164" gradientUnits="userSpaceOnUse">
<stop stop-color="#1FADC3"/>
<stop offset="0.7072" stop-color="#36B98F"/>
</linearGradient>
<linearGradient id="paint1_linear_1037_881" x1="127.781" y1="14.7768" x2="128.815" y2="13.9127" gradientUnits="userSpaceOnUse">
<stop stop-color="#123F06" stop-opacity="0"/>
<stop offset="1" stop-color="#123F06"/>
</linearGradient>
<radialGradient id="paint2_radial_1037_881" cx="0" cy="0" r="1" gradientUnits="userSpaceOnUse" gradientTransform="translate(125.932 16.4033) scale(5.71286 5.70863)">
<stop offset="0.4185" stop-color="#123F06" stop-opacity="0"/>
<stop offset="1" stop-color="#123F06"/>
</radialGradient>
<linearGradient id="paint3_linear_1037_881" x1="121.942" y1="4.61102" x2="131.006" y2="10.1555" gradientUnits="userSpaceOnUse">
<stop stop-color="#9FDB57"/>
<stop offset="1" stop-color="#71CA5E"/>
</linearGradient>
<linearGradient id="paint4_linear_1037_881" x1="132.352" y1="20.125" x2="142.409" y2="14.322" gradientUnits="userSpaceOnUse">
<stop stop-color="#1FADC3"/>
<stop offset="0.7072" stop-color="#36B98F"/>
</linearGradient>
<linearGradient id="paint5_linear_1037_881" x1="138.688" y1="14.6843" x2="139.722" y2="13.8202" gradientUnits="userSpaceOnUse">
<stop stop-color="#123F06" stop-opacity="0"/>
<stop offset="1" stop-color="#123F06"/>
</linearGradient>
<radialGradient id="paint6_radial_1037_881" cx="0" cy="0" r="1" gradientUnits="userSpaceOnUse" gradientTransform="translate(136.74 16.4033) scale(5.71271 5.70863)">
<stop offset="0.4185" stop-color="#123F06" stop-opacity="0"/>
<stop offset="1" stop-color="#123F06"/>
</radialGradient>
<linearGradient id="paint7_linear_1037_881" x1="132.748" y1="4.61441" x2="141.812" y2="10.1591" gradientUnits="userSpaceOnUse">
<stop stop-color="#9FDB57"/>
<stop offset="1" stop-color="#71CA5E"/>
</linearGradient>
</defs>
</svg>
