<svg width="34" height="24" viewBox="0 0 34 24" fill="none" xmlns="http://www.w3.org/2000/svg">
<path d="M34 0.535034H0V23.2017H34V0.535034Z" fill="#003399"/>
<path d="M17.002 3.05359L16.6128 4.25122L17.2116 4.44578L17.002 3.05359Z" fill="#FFCC00"/>
<path d="M17.002 3.05359L17.3911 4.25122L16.7923 4.44578L17.002 3.05359Z" fill="#FFCC00"/>
<path d="M18.1973 3.92383H16.938V4.55346L18.1973 3.92383Z" fill="#FFCC00"/>
<path d="M18.1973 3.92383L17.1785 4.664L16.8084 4.15462L18.1973 3.92383Z" fill="#FFCC00"/>
<path d="M17.7402 5.33154L17.3511 4.13392L16.7523 4.32848L17.7402 5.33154Z" fill="#FFCC00"/>
<path d="M17.7402 5.33154L16.7215 4.59137L17.0916 4.08199L17.7402 5.33154Z" fill="#FFCC00"/>
<path d="M15.8027 3.92358H17.062V4.55321L15.8027 3.92358Z" fill="#FFCC00"/>
<path d="M15.8027 3.92358L16.8215 4.66376L17.1916 4.15438L15.8027 3.92358Z" fill="#FFCC00"/>
<path d="M16.2598 5.33142L16.6489 4.13379L17.2477 4.32836L16.2598 5.33142Z" fill="#FFCC00"/>
<path d="M16.2598 5.33142L17.2785 4.59125L16.9084 4.08187L16.2598 5.33142Z" fill="#FFCC00"/>
<path d="M17.002 18.1647L16.6128 19.3623L17.2116 19.5569L17.002 18.1647Z" fill="#FFCC00"/>
<path d="M17.002 18.1647L17.3911 19.3623L16.7923 19.5569L17.002 18.1647Z" fill="#FFCC00"/>
<path d="M18.1973 19.0348H16.938V19.6644L18.1973 19.0348Z" fill="#FFCC00"/>
<path d="M18.1973 19.0348L17.1785 19.775L16.8084 19.2656L18.1973 19.0348Z" fill="#FFCC00"/>
<path d="M17.7402 20.4427L17.3511 19.2451L16.7523 19.4397L17.7402 20.4427Z" fill="#FFCC00"/>
<path d="M17.7402 20.4427L16.7215 19.7026L17.0916 19.1932L17.7402 20.4427Z" fill="#FFCC00"/>
<path d="M15.8027 19.0349H17.062V19.6645L15.8027 19.0349Z" fill="#FFCC00"/>
<path d="M15.8027 19.0349L16.8215 19.7751L17.1916 19.2657L15.8027 19.0349Z" fill="#FFCC00"/>
<path d="M16.2598 20.4426L16.6489 19.245L17.2477 19.4396L16.2598 20.4426Z" fill="#FFCC00"/>
<path d="M16.2598 20.4426L17.2785 19.7025L16.9084 19.1931L16.2598 20.4426Z" fill="#FFCC00"/>
<path d="M9.44336 10.609L9.05423 11.8066L9.65304 12.0012L9.44336 10.609Z" fill="#FFCC00"/>
<path d="M9.44336 10.609L9.83249 11.8066L9.23368 12.0012L9.44336 10.609Z" fill="#FFCC00"/>
<path d="M10.6387 11.4791H9.37941V12.1088L10.6387 11.4791Z" fill="#FFCC00"/>
<path d="M10.6387 11.4791L9.61991 12.2193L9.24982 11.7099L10.6387 11.4791Z" fill="#FFCC00"/>
<path d="M10.1816 12.8871L9.79251 11.6895L9.19369 11.884L10.1816 12.8871Z" fill="#FFCC00"/>
<path d="M10.1816 12.8871L9.16288 12.1469L9.53297 11.6375L10.1816 12.8871Z" fill="#FFCC00"/>
<path d="M8.24414 11.4791H9.5034V12.1088L8.24414 11.4791Z" fill="#FFCC00"/>
<path d="M8.24414 11.4791L9.2629 12.2193L9.63299 11.7099L8.24414 11.4791Z" fill="#FFCC00"/>
<path d="M8.70117 12.8871L9.0903 11.6895L9.68912 11.884L8.70117 12.8871Z" fill="#FFCC00"/>
<path d="M8.70117 12.8871L9.71993 12.1469L9.34985 11.6375L8.70117 12.8871Z" fill="#FFCC00"/>
<path d="M12.4824 6.34399L13.5012 5.60382L13.1311 5.09444L12.4824 6.34399Z" fill="#FFCC00"/>
<path d="M12.4824 6.34399L12.8716 5.14637L13.4704 5.34093L12.4824 6.34399Z" fill="#FFCC00"/>
<path d="M12.0332 4.93616L13.052 5.67633L13.4221 5.16695L12.0332 4.93616Z" fill="#FFCC00"/>
<path d="M12.0332 4.93616H13.2925V5.56579L12.0332 4.93616Z" fill="#FFCC00"/>
<path d="M13.2305 4.06592L12.8413 5.26354L13.4401 5.45811L13.2305 4.06592Z" fill="#FFCC00"/>
<path d="M13.2305 4.06592L13.6196 5.26354L13.0208 5.45811L13.2305 4.06592Z" fill="#FFCC00"/>
<path d="M13.9609 6.34399L12.9422 5.60382L13.3123 5.09444L13.9609 6.34399Z" fill="#FFCC00"/>
<path d="M13.9609 6.34399L13.5718 5.14637L12.973 5.34093L13.9609 6.34399Z" fill="#FFCC00"/>
<path d="M14.4199 4.93604L13.4012 5.67621L13.0311 5.16683L14.4199 4.93604Z" fill="#FFCC00"/>
<path d="M14.4199 4.93604H13.1607V5.56566L14.4199 4.93604Z" fill="#FFCC00"/>
<path d="M11.1895 9.1095L10.8003 7.91187L10.2015 8.10644L11.1895 9.1095Z" fill="#FFCC00"/>
<path d="M11.1895 9.1095L10.1707 8.36932L10.5408 7.85994L11.1895 9.1095Z" fill="#FFCC00"/>
<path d="M9.70898 9.10962L10.7277 8.36945L10.3577 7.86006L9.70898 9.10962Z" fill="#FFCC00"/>
<path d="M9.70898 9.10962L10.0981 7.91199L10.6969 8.10656L9.70898 9.10962Z" fill="#FFCC00"/>
<path d="M9.25 7.70178L10.2688 8.44196L10.6388 7.93258L9.25 7.70178Z" fill="#FFCC00"/>
<path d="M9.25 7.70178H10.5093V8.33141L9.25 7.70178Z" fill="#FFCC00"/>
<path d="M11.6406 7.70154L10.6219 8.44171L10.2518 7.93233L11.6406 7.70154Z" fill="#FFCC00"/>
<path d="M11.6406 7.70154H10.3814V8.33117L11.6406 7.70154Z" fill="#FFCC00"/>
<path d="M10.4434 6.8313L10.8325 8.02893L10.2337 8.22349L10.4434 6.8313Z" fill="#FFCC00"/>
<path d="M10.4434 6.8313L10.0542 8.02893L10.653 8.22349L10.4434 6.8313Z" fill="#FFCC00"/>
<path d="M11.6523 15.257H10.3931V15.8866L11.6523 15.257Z" fill="#FFCC00"/>
<path d="M11.6523 15.257L10.6336 15.9971L10.2635 15.4878L11.6523 15.257Z" fill="#FFCC00"/>
<path d="M11.1934 16.6648L10.8042 15.4672L10.2054 15.6617L11.1934 16.6648Z" fill="#FFCC00"/>
<path d="M11.1934 16.6648L10.1746 15.9246L10.5447 15.4152L11.1934 16.6648Z" fill="#FFCC00"/>
<path d="M9.71289 16.6649L10.7317 15.9247L10.3616 15.4154L9.71289 16.6649Z" fill="#FFCC00"/>
<path d="M9.71289 16.6649L10.102 15.4673L10.7008 15.6619L9.71289 16.6649Z" fill="#FFCC00"/>
<path d="M10.4531 14.3871L10.8423 15.5847L10.2434 15.7793L10.4531 14.3871Z" fill="#FFCC00"/>
<path d="M10.4531 14.3871L10.064 15.5847L10.6628 15.7793L10.4531 14.3871Z" fill="#FFCC00"/>
<path d="M9.25586 15.2568H10.5151V15.8865L9.25586 15.2568Z" fill="#FFCC00"/>
<path d="M9.25586 15.2568L10.2746 15.997L10.6447 15.4876L9.25586 15.2568Z" fill="#FFCC00"/>
<path d="M14.4199 18.0225H13.1607V18.6521L14.4199 18.0225Z" fill="#FFCC00"/>
<path d="M14.4199 18.0225L13.4012 18.7626L13.0311 18.2533L14.4199 18.0225Z" fill="#FFCC00"/>
<path d="M13.959 19.4304L13.5699 18.2328L12.971 18.4274L13.959 19.4304Z" fill="#FFCC00"/>
<path d="M13.959 19.4304L12.9402 18.6902L13.3103 18.1809L13.959 19.4304Z" fill="#FFCC00"/>
<path d="M12.4805 19.4305L13.4992 18.6904L13.1291 18.181L12.4805 19.4305Z" fill="#FFCC00"/>
<path d="M12.4805 19.4305L12.8696 18.2329L13.4684 18.4275L12.4805 19.4305Z" fill="#FFCC00"/>
<path d="M13.2188 17.1525L13.6079 18.3501L13.0091 18.5447L13.2188 17.1525Z" fill="#FFCC00"/>
<path d="M13.2188 17.1525L12.8296 18.3501L13.4284 18.5447L13.2188 17.1525Z" fill="#FFCC00"/>
<path d="M12.0215 18.0222H13.2807V18.6518L12.0215 18.0222Z" fill="#FFCC00"/>
<path d="M12.0215 18.0222L13.0402 18.7624L13.4103 18.253L12.0215 18.0222Z" fill="#FFCC00"/>
<path d="M24.5449 10.609L24.9341 11.8066L24.3352 12.0012L24.5449 10.609Z" fill="#FFCC00"/>
<path d="M24.5449 10.609L24.1558 11.8066L24.7546 12.0012L24.5449 10.609Z" fill="#FFCC00"/>
<path d="M23.3496 11.4792H24.6089V12.1089L23.3496 11.4792Z" fill="#FFCC00"/>
<path d="M23.3496 11.4792L24.3684 12.2194L24.7385 11.71L23.3496 11.4792Z" fill="#FFCC00"/>
<path d="M23.8066 12.8872L24.1958 11.6896L24.7946 11.8841L23.8066 12.8872Z" fill="#FFCC00"/>
<path d="M23.8066 12.8872L24.8254 12.147L24.4553 11.6377L23.8066 12.8872Z" fill="#FFCC00"/>
<path d="M25.7422 11.4791H24.4829V12.1088L25.7422 11.4791Z" fill="#FFCC00"/>
<path d="M25.7422 11.4791L24.7234 12.2193L24.3533 11.7099L25.7422 11.4791Z" fill="#FFCC00"/>
<path d="M25.2852 12.8871L24.896 11.6895L24.2972 11.884L25.2852 12.8871Z" fill="#FFCC00"/>
<path d="M25.2852 12.8871L24.2664 12.1469L24.6365 11.6375L25.2852 12.8871Z" fill="#FFCC00"/>
<path d="M21.5078 6.34399L20.4891 5.60382L20.8591 5.09444L21.5078 6.34399Z" fill="#FFCC00"/>
<path d="M21.5078 6.34399L21.1187 5.14637L20.5199 5.34093L21.5078 6.34399Z" fill="#FFCC00"/>
<path d="M21.9648 4.93628L20.9461 5.67645L20.576 5.16707L21.9648 4.93628Z" fill="#FFCC00"/>
<path d="M21.9648 4.93628H20.7056V5.56591L21.9648 4.93628Z" fill="#FFCC00"/>
<path d="M20.7656 4.0658L21.1548 5.26342L20.5559 5.45799L20.7656 4.0658Z" fill="#FFCC00"/>
<path d="M20.7656 4.0658L20.3765 5.26342L20.9753 5.45799L20.7656 4.0658Z" fill="#FFCC00"/>
<path d="M20.0293 6.34399L21.0481 5.60382L20.678 5.09444L20.0293 6.34399Z" fill="#FFCC00"/>
<path d="M20.0293 6.34399L20.4184 5.14637L21.0172 5.34093L20.0293 6.34399Z" fill="#FFCC00"/>
<path d="M19.5703 4.93616L20.5891 5.67633L20.9592 5.16695L19.5703 4.93616Z" fill="#FFCC00"/>
<path d="M19.5703 4.93616H20.8296V5.56579L19.5703 4.93616Z" fill="#FFCC00"/>
<path d="M22.7949 9.10889L23.1841 7.91126L23.7829 8.10583L22.7949 9.10889Z" fill="#FFCC00"/>
<path d="M22.7949 9.10889L23.8137 8.36871L23.4436 7.85933L22.7949 9.10889Z" fill="#FFCC00"/>
<path d="M24.2754 9.10901L23.2566 8.36883L23.6267 7.85945L24.2754 9.10901Z" fill="#FFCC00"/>
<path d="M24.2754 9.10901L23.8863 7.91138L23.2874 8.10595L24.2754 9.10901Z" fill="#FFCC00"/>
<path d="M24.7344 7.70117L23.7156 8.44135L23.3455 7.93196L24.7344 7.70117Z" fill="#FFCC00"/>
<path d="M24.7344 7.70117H23.4751V8.3308L24.7344 7.70117Z" fill="#FFCC00"/>
<path d="M22.3457 7.70154L23.3645 8.44171L23.7346 7.93233L22.3457 7.70154Z" fill="#FFCC00"/>
<path d="M22.3457 7.70154H23.605V8.33117L22.3457 7.70154Z" fill="#FFCC00"/>
<path d="M23.543 6.8313L23.1538 8.02893L23.7526 8.22349L23.543 6.8313Z" fill="#FFCC00"/>
<path d="M23.543 6.8313L23.9321 8.02893L23.3333 8.22349L23.543 6.8313Z" fill="#FFCC00"/>
<path d="M22.3359 15.2567H23.5952V15.8863L22.3359 15.2567Z" fill="#FFCC00"/>
<path d="M22.3359 15.2567L23.3547 15.9969L23.7248 15.4875L22.3359 15.2567Z" fill="#FFCC00"/>
<path d="M22.7949 16.6644L23.1841 15.4668L23.7829 15.6614L22.7949 16.6644Z" fill="#FFCC00"/>
<path d="M22.7949 16.6644L23.8137 15.9243L23.4436 15.4149L22.7949 16.6644Z" fill="#FFCC00"/>
<path d="M24.2754 16.6647L23.2566 15.9245L23.6267 15.4151L24.2754 16.6647Z" fill="#FFCC00"/>
<path d="M24.2754 16.6647L23.8863 15.467L23.2874 15.6616L24.2754 16.6647Z" fill="#FFCC00"/>
<path d="M23.5352 14.3866L23.146 15.5842L23.7448 15.7788L23.5352 14.3866Z" fill="#FFCC00"/>
<path d="M23.5352 14.3866L23.9243 15.5842L23.3255 15.7788L23.5352 14.3866Z" fill="#FFCC00"/>
<path d="M24.7324 15.2563H23.4732V15.886L24.7324 15.2563Z" fill="#FFCC00"/>
<path d="M24.7324 15.2563L23.7137 15.9965L23.3436 15.4871L24.7324 15.2563Z" fill="#FFCC00"/>
<path d="M19.5684 18.0221H20.8276V18.6517L19.5684 18.0221Z" fill="#FFCC00"/>
<path d="M19.5684 18.0221L20.5871 18.7623L20.9572 18.2529L19.5684 18.0221Z" fill="#FFCC00"/>
<path d="M20.0273 19.4304L20.4165 18.2328L21.0153 18.4274L20.0273 19.4304Z" fill="#FFCC00"/>
<path d="M20.0273 19.4304L21.0461 18.6902L20.676 18.1809L20.0273 19.4304Z" fill="#FFCC00"/>
<path d="M21.5059 19.4307L20.4871 18.6905L20.8572 18.1811L21.5059 19.4307Z" fill="#FFCC00"/>
<path d="M21.5059 19.4307L21.1167 18.233L20.5179 18.4276L21.5059 19.4307Z" fill="#FFCC00"/>
<path d="M20.7695 17.1523L20.3804 18.35L20.9792 18.5445L20.7695 17.1523Z" fill="#FFCC00"/>
<path d="M20.7695 17.1523L21.1587 18.35L20.5599 18.5445L20.7695 17.1523Z" fill="#FFCC00"/>
<path d="M21.9668 18.0221H20.7075V18.6517L21.9668 18.0221Z" fill="#FFCC00"/>
<path d="M21.9668 18.0221L20.948 18.7623L20.5779 18.2529L21.9668 18.0221Z" fill="#FFCC00"/>
</svg>
