<svg width="148" height="37" viewBox="0 0 148 37" fill="none" xmlns="http://www.w3.org/2000/svg">
<path d="M55.3064 8.20996H47.1728C46.6162 8.20996 46.1428 8.61433 46.056 9.16379L42.7664 30.0207C42.7009 30.4322 43.0197 30.8033 43.4371 30.8033H47.3202C47.8768 30.8033 48.3502 30.3989 48.437 29.8483L49.3242 24.2228C49.4098 23.6722 49.8844 23.2678 50.4398 23.2678H53.0146C58.3725 23.2678 61.4647 20.6751 62.2722 15.5373C62.6362 13.2895 62.2877 11.5234 61.2352 10.2865C60.0792 8.9283 58.0288 8.20996 55.3064 8.20996ZM56.2448 15.8275C55.8 18.7461 53.5701 18.7461 51.4138 18.7461H50.1865L51.0475 13.2955C51.0987 12.966 51.3841 12.7234 51.7171 12.7234H52.2797C53.7485 12.7234 55.134 12.7234 55.85 13.5607C56.2769 14.0602 56.4078 14.8023 56.2448 15.8275Z" fill="#253B80"/>
<path d="M79.6177 15.7333H75.7227C75.3909 15.7333 75.1043 15.9759 75.0531 16.3053L74.8807 17.3947L74.6083 16.9999C73.7651 15.7761 71.8848 15.3669 70.0081 15.3669C65.704 15.3669 62.0278 18.6268 61.3118 23.1997C60.9396 25.4808 61.4688 27.662 62.7628 29.1832C63.9497 30.5818 65.6481 31.1646 67.6687 31.1646C71.1367 31.1646 73.0598 28.9346 73.0598 28.9346L72.8862 30.0169C72.8208 30.4308 73.1395 30.8018 73.5546 30.8018H77.0631C77.6209 30.8018 78.0918 30.3975 78.1798 29.8468L80.2849 16.5158C80.3515 16.1055 80.034 15.7333 79.6177 15.7333ZM74.1885 23.3139C73.8127 25.5391 72.0466 27.0329 69.794 27.0329C68.663 27.0329 67.7591 26.6702 67.1787 25.9827C66.6031 25.3001 66.3842 24.3284 66.5674 23.2461C66.9182 21.04 68.7141 19.4974 70.9322 19.4974C72.0382 19.4974 72.9373 19.8649 73.5296 20.5583C74.1231 21.2588 74.3586 22.2364 74.1885 23.3139Z" fill="#253B80"/>
<path d="M100.362 15.7334H96.4481C96.0746 15.7334 95.7238 15.9189 95.5121 16.2293L90.1138 24.1811L87.8256 16.5398C87.6817 16.0616 87.2404 15.7334 86.7409 15.7334H82.8947C82.4273 15.7334 82.1026 16.1901 82.2513 16.6301L86.5625 29.282L82.5093 35.0038C82.1906 35.4546 82.5117 36.0742 83.0624 36.0742H86.9716C87.3427 36.0742 87.69 35.8934 87.9005 35.5889L100.919 16.7978C101.23 16.3483 100.91 15.7334 100.362 15.7334Z" fill="#253B80"/>
<path d="M113.322 8.20996H105.187C104.632 8.20996 104.158 8.61433 104.072 9.16379L100.782 30.0207C100.717 30.4322 101.035 30.8033 101.45 30.8033H105.625C106.013 30.8033 106.344 30.5203 106.405 30.1349L107.339 24.2228C107.424 23.6722 107.899 23.2678 108.454 23.2678H111.028C116.387 23.2678 119.478 20.6751 120.287 15.5373C120.652 13.2895 120.301 11.5234 119.248 10.2865C118.094 8.9283 116.044 8.20996 113.322 8.20996ZM114.26 15.8275C113.817 18.7461 111.587 18.7461 109.429 18.7461H108.203L109.066 13.2955C109.117 12.966 109.4 12.7234 109.734 12.7234H110.296C111.764 12.7234 113.151 12.7234 113.867 13.5607C114.294 14.0602 114.423 14.8023 114.26 15.8275Z" fill="#179BD7"/>
<path d="M137.634 15.7333H133.741C133.407 15.7333 133.123 15.9759 133.073 16.3053L132.901 17.3947L132.627 16.9999C131.784 15.7761 129.905 15.3669 128.028 15.3669C123.724 15.3669 120.049 18.6268 119.333 23.1997C118.962 25.4808 119.489 27.662 120.783 29.1832C121.972 30.5818 123.668 31.1646 125.689 31.1646C129.157 31.1646 131.08 28.9346 131.08 28.9346L130.906 30.0169C130.841 30.4308 131.16 30.8018 131.577 30.8018H135.084C135.64 30.8018 136.113 30.3975 136.2 29.8468L138.306 16.5158C138.37 16.1055 138.052 15.7333 137.634 15.7333ZM132.205 23.3139C131.831 25.5391 130.063 27.0329 127.81 27.0329C126.682 27.0329 125.775 26.6702 125.195 25.9827C124.619 25.3001 124.403 24.3284 124.584 23.2461C124.937 21.04 126.73 19.4974 128.949 19.4974C130.055 19.4974 130.954 19.8649 131.546 20.5583C132.142 21.2588 132.377 22.2364 132.205 23.3139Z" fill="#179BD7"/>
<path d="M142.224 8.78174L138.885 30.0205C138.82 30.432 139.139 30.803 139.554 30.803H142.91C143.468 30.803 143.941 30.3987 144.027 29.848L147.319 8.99225C147.384 8.58075 147.066 8.2085 146.651 8.2085H142.892C142.56 8.20969 142.275 8.4523 142.224 8.78174Z" fill="#179BD7"/>
<path d="M8.9871 34.8562L9.60911 30.9053L8.22356 30.8732H1.60742L6.2053 1.71961C6.21957 1.63161 6.26595 1.54954 6.33375 1.49127C6.40154 1.43299 6.48836 1.40088 6.57874 1.40088H17.7345C21.438 1.40088 23.9938 2.17155 25.3282 3.69268C25.9538 4.40627 26.3522 5.15197 26.5449 5.97259C26.7471 6.83365 26.7507 7.86241 26.5532 9.11713L26.539 9.20871V10.0127L27.1645 10.3671C27.6914 10.6466 28.11 10.9665 28.4311 11.3328C28.9663 11.9429 29.3124 12.7184 29.4587 13.6377C29.6098 14.5832 29.5598 15.7083 29.3124 16.982C29.027 18.4473 28.5655 19.7234 27.9423 20.7676C27.3691 21.7298 26.6389 22.5278 25.7718 23.1462C24.9441 23.7338 23.9605 24.1798 22.8485 24.4652C21.771 24.7459 20.5424 24.8874 19.195 24.8874H18.3268C17.7059 24.8874 17.103 25.111 16.6296 25.5118C16.1551 25.9209 15.8411 26.4799 15.7448 27.0912L15.6794 27.4468L14.5804 34.4102L14.5305 34.6659C14.5174 34.7468 14.4948 34.7872 14.4615 34.8146C14.4318 34.8396 14.389 34.8562 14.3473 34.8562H8.9871Z" fill="#253B80"/>
<path d="M27.7565 9.30151C27.7232 9.5144 27.6851 9.73204 27.6423 9.95564C26.1711 17.509 21.138 20.1183 14.7097 20.1183H11.4367C10.6506 20.1183 9.98816 20.6892 9.86566 21.4646L8.18992 32.0923L7.71539 35.1048C7.6357 35.6138 8.02817 36.0729 8.54196 36.0729H14.347C15.0344 36.0729 15.6184 35.5734 15.7266 34.8955L15.7837 34.6005L16.8767 27.6645L16.9468 27.2839C17.0539 26.6036 17.639 26.1041 18.3264 26.1041H19.1946C24.8189 26.1041 29.2217 23.8206 30.5085 17.2128C31.0461 14.4524 30.7678 12.1475 29.3454 10.5265C28.9149 10.0377 28.3809 9.63214 27.7565 9.30151Z" fill="#179BD7"/>
<path d="M26.219 8.68797C25.9942 8.62255 25.7623 8.56309 25.5245 8.50957C25.2854 8.45724 25.0404 8.41086 24.7883 8.37042C23.9058 8.2277 22.9389 8.15991 21.903 8.15991H13.1592C12.9439 8.15991 12.7394 8.20867 12.5562 8.29668C12.153 8.49054 11.8533 8.87231 11.7808 9.33971L9.92071 21.121L9.86719 21.4647C9.98969 20.6893 10.6521 20.1184 11.4383 20.1184H14.7113C21.1395 20.1184 26.1726 17.5079 27.6438 9.95577C27.6878 9.73218 27.7247 9.51454 27.758 9.30165C27.3857 9.10423 26.9826 8.93534 26.5485 8.79144C26.4414 8.75576 26.3308 8.72127 26.219 8.68797Z" fill="#222D65"/>
<path d="M11.7797 9.33961C11.8523 8.87221 12.152 8.49044 12.5552 8.29778C12.7395 8.20977 12.9429 8.16101 13.1581 8.16101H21.902C22.9378 8.16101 23.9048 8.2288 24.7872 8.37151C25.0394 8.41195 25.2844 8.45833 25.5234 8.51066C25.7613 8.56418 25.9932 8.62365 26.218 8.68906C26.3298 8.72236 26.4404 8.75685 26.5486 8.79134C26.9827 8.93525 27.3859 9.10532 27.7581 9.30155C28.1958 6.51024 27.7546 4.60972 26.2453 2.88879C24.5815 0.994216 21.5785 0.183105 17.7358 0.183105H6.58006C5.79511 0.183105 5.12553 0.753975 5.00422 1.5306L0.357583 30.9839C0.266006 31.5667 0.715566 32.0923 1.30309 32.0923H8.19039L9.91964 21.1209L11.7797 9.33961Z" fill="#253B80"/>
</svg>
