<svg width="35" height="19" viewBox="0 0 35 19" fill="none" xmlns="http://www.w3.org/2000/svg">
<path d="M34.25 0.920898H0.25V18.8156H34.25V0.920898Z" fill="#B22234"/>
<path d="M0.25 2.9856H34.25H0.25ZM34.25 5.73863H0.25H34.25ZM0.25 8.49167H34.25H0.25ZM34.25 11.2447H0.25H34.25ZM0.25 13.9977H34.25H0.25ZM34.25 16.7508H0.25H34.25Z" fill="black"/>
<path fill-rule="evenodd" clip-rule="evenodd" d="M34.25 3.67388H0.25V2.29736H34.25V3.67388ZM0.25 5.0504H34.25V6.42692H0.25V5.0504ZM34.25 9.17995H0.25V7.80344H34.25V9.17995ZM0.25 10.5565H34.25V11.933H0.25V10.5565ZM34.25 14.686H0.25V13.3095H34.25V14.686ZM0.25 16.0625H34.25V17.4391H0.25V16.0625Z" fill="white"/>
<path d="M13.85 0.920898H0.25V10.5565H13.85V0.920898Z" fill="#3C3B6E"/>
<path d="M1.38303 1.33386L1.70667 2.32992L0.859375 1.71432H1.90669L1.05939 2.32992L1.38303 1.33386Z" fill="white"/>
<path d="M1.38303 3.26099L1.70667 4.25704L0.859375 3.64145H1.90669L1.05939 4.25704L1.38303 3.26099Z" fill="white"/>
<path d="M1.38303 5.18811L1.70667 6.18417L0.859375 5.56857H1.90669L1.05939 6.18417L1.38303 5.18811Z" fill="white"/>
<path d="M1.38303 7.11523L1.70667 8.11129L0.859375 7.49569H1.90669L1.05939 8.11129L1.38303 7.11523Z" fill="white"/>
<path d="M1.38303 9.04236L1.70667 10.0384L0.859375 9.42282H1.90669L1.05939 10.0384L1.38303 9.04236Z" fill="white"/>
<path d="M2.5178 2.29736L2.84144 3.29342L1.99414 2.67782H3.04146L2.19416 3.29342L2.5178 2.29736Z" fill="white"/>
<path d="M2.5178 4.22461L2.84144 5.22067L1.99414 4.60507H3.04146L2.19416 5.22067L2.5178 4.22461Z" fill="white"/>
<path d="M2.5178 6.15161L2.84144 7.14767L1.99414 6.53207H3.04146L2.19416 7.14767L2.5178 6.15161Z" fill="white"/>
<path d="M2.5178 8.07886L2.84144 9.07492L1.99414 8.45932H3.04146L2.19416 9.07492L2.5178 8.07886Z" fill="white"/>
<path d="M3.65061 1.33386L3.97425 2.32992L3.12695 1.71432H4.17427L3.32697 2.32992L3.65061 1.33386Z" fill="white"/>
<path d="M3.65061 3.26099L3.97425 4.25704L3.12695 3.64145H4.17427L3.32697 4.25704L3.65061 3.26099Z" fill="white"/>
<path d="M3.65061 5.18811L3.97425 6.18417L3.12695 5.56857H4.17427L3.32697 6.18417L3.65061 5.18811Z" fill="white"/>
<path d="M3.65061 7.11523L3.97425 8.11129L3.12695 7.49569H4.17427L3.32697 8.11129L3.65061 7.11523Z" fill="white"/>
<path d="M3.65061 9.04236L3.97425 10.0384L3.12695 9.42282H4.17427L3.32697 10.0384L3.65061 9.04236Z" fill="white"/>
<path d="M4.78342 2.29736L5.10706 3.29342L4.25977 2.67782H5.30708L4.45979 3.29342L4.78342 2.29736Z" fill="white"/>
<path d="M4.78342 4.22461L5.10706 5.22067L4.25977 4.60507H5.30708L4.45979 5.22067L4.78342 4.22461Z" fill="white"/>
<path d="M4.78342 6.15161L5.10706 7.14767L4.25977 6.53207H5.30708L4.45979 7.14767L4.78342 6.15161Z" fill="white"/>
<path d="M4.78342 8.07886L5.10706 9.07492L4.25977 8.45932H5.30708L4.45979 9.07492L4.78342 8.07886Z" fill="white"/>
<path d="M5.91624 1.33386L6.23988 2.32992L5.39258 1.71432H6.4399L5.5926 2.32992L5.91624 1.33386Z" fill="white"/>
<path d="M5.91624 3.26099L6.23988 4.25704L5.39258 3.64145H6.4399L5.5926 4.25704L5.91624 3.26099Z" fill="white"/>
<path d="M5.91624 5.18811L6.23988 6.18417L5.39258 5.56857H6.4399L5.5926 6.18417L5.91624 5.18811Z" fill="white"/>
<path d="M5.91624 7.11523L6.23988 8.11129L5.39258 7.49569H6.4399L5.5926 8.11129L5.91624 7.11523Z" fill="white"/>
<path d="M5.91624 9.04236L6.23988 10.0384L5.39258 9.42282H6.4399L5.5926 10.0384L5.91624 9.04236Z" fill="white"/>
<path d="M7.051 2.29736L7.37464 3.29342L6.52734 2.67782H7.57466L6.72736 3.29342L7.051 2.29736Z" fill="white"/>
<path d="M7.051 4.22461L7.37464 5.22067L6.52734 4.60507H7.57466L6.72736 5.22067L7.051 4.22461Z" fill="white"/>
<path d="M7.051 6.15161L7.37464 7.14767L6.52734 6.53207H7.57466L6.72736 7.14767L7.051 6.15161Z" fill="white"/>
<path d="M7.051 8.07886L7.37464 9.07492L6.52734 8.45932H7.57466L6.72736 9.07492L7.051 8.07886Z" fill="white"/>
<path d="M8.18381 1.33386L8.50745 2.32992L7.66016 1.71432H8.70747L7.86018 2.32992L8.18381 1.33386Z" fill="white"/>
<path d="M8.18381 3.26099L8.50745 4.25704L7.66016 3.64145H8.70747L7.86018 4.25704L8.18381 3.26099Z" fill="white"/>
<path d="M8.18381 5.18811L8.50745 6.18417L7.66016 5.56857H8.70747L7.86018 6.18417L8.18381 5.18811Z" fill="white"/>
<path d="M8.18381 7.11523L8.50745 8.11129L7.66016 7.49569H8.70747L7.86018 8.11129L8.18381 7.11523Z" fill="white"/>
<path d="M8.18381 9.04236L8.50745 10.0384L7.66016 9.42282H8.70747L7.86018 10.0384L8.18381 9.04236Z" fill="white"/>
<path d="M9.31663 2.29736L9.64027 3.29342L8.79297 2.67782H9.84029L8.99299 3.29342L9.31663 2.29736Z" fill="white"/>
<path d="M9.31663 4.22461L9.64027 5.22067L8.79297 4.60507H9.84029L8.99299 5.22067L9.31663 4.22461Z" fill="white"/>
<path d="M9.31663 6.15161L9.64027 7.14767L8.79297 6.53207H9.84029L8.99299 7.14767L9.31663 6.15161Z" fill="white"/>
<path d="M9.31663 8.07886L9.64027 9.07492L8.79297 8.45932H9.84029L8.99299 9.07492L9.31663 8.07886Z" fill="white"/>
<path d="M10.4494 1.33386L10.7731 2.32992L9.92578 1.71432H10.9731L10.1258 2.32992L10.4494 1.33386Z" fill="white"/>
<path d="M10.4494 3.26099L10.7731 4.25704L9.92578 3.64145H10.9731L10.1258 4.25704L10.4494 3.26099Z" fill="white"/>
<path d="M10.4494 5.18811L10.7731 6.18417L9.92578 5.56857H10.9731L10.1258 6.18417L10.4494 5.18811Z" fill="white"/>
<path d="M10.4494 7.11523L10.7731 8.11129L9.92578 7.49569H10.9731L10.1258 8.11129L10.4494 7.11523Z" fill="white"/>
<path d="M10.4494 9.04236L10.7731 10.0384L9.92578 9.42282H10.9731L10.1258 10.0384L10.4494 9.04236Z" fill="white"/>
<path d="M11.5823 2.29736L11.9059 3.29342L11.0586 2.67782H12.1059L11.2586 3.29342L11.5823 2.29736Z" fill="white"/>
<path d="M11.5823 4.22461L11.9059 5.22067L11.0586 4.60507H12.1059L11.2586 5.22067L11.5823 4.22461Z" fill="white"/>
<path d="M11.5823 6.15161L11.9059 7.14767L11.0586 6.53207H12.1059L11.2586 7.14767L11.5823 6.15161Z" fill="white"/>
<path d="M11.5823 8.07886L11.9059 9.07492L11.0586 8.45932H12.1059L11.2586 9.07492L11.5823 8.07886Z" fill="white"/>
<path d="M12.717 1.33386L13.0407 2.32992L12.1934 1.71432H13.2407L12.3934 2.32992L12.717 1.33386Z" fill="white"/>
<path d="M12.717 3.26099L13.0407 4.25704L12.1934 3.64145H13.2407L12.3934 4.25704L12.717 3.26099Z" fill="white"/>
<path d="M12.717 5.18811L13.0407 6.18417L12.1934 5.56857H13.2407L12.3934 6.18417L12.717 5.18811Z" fill="white"/>
<path d="M12.717 7.11523L13.0407 8.11129L12.1934 7.49569H13.2407L12.3934 8.11129L12.717 7.11523Z" fill="white"/>
<path d="M12.717 9.04236L13.0407 10.0384L12.1934 9.42282H13.2407L12.3934 10.0384L12.717 9.04236Z" fill="white"/>
</svg>
