<svg width="121" height="40" viewBox="0 0 121 40" fill="none" xmlns="http://www.w3.org/2000/svg">
<path d="M59.831 1.42306L51.811 38.9314H42.1073L50.1335 1.42306H59.831ZM100.647 25.6388L105.753 11.5563L108.692 25.6388H100.647ZM111.471 38.9314H120.447L112.616 1.42306H104.333C102.472 1.42306 100.905 2.5068 100.207 4.1722L85.6543 38.9253H95.8416L97.8619 33.3229H110.308L111.471 38.9314ZM86.1502 26.6858C86.193 16.7852 72.461 16.2403 72.559 11.8196C72.5896 10.4726 73.8691 9.04596 76.6731 8.67859C78.0628 8.4949 81.8953 8.3602 86.242 10.3562L87.944 2.40271C85.6053 1.55164 82.6055 0.737305 78.8648 0.737305C69.2775 0.737305 62.5248 5.8376 62.4697 13.136C62.4084 18.5363 67.2878 21.5487 70.9672 23.3427C74.7446 25.1796 76.018 26.3613 75.9996 28.0022C75.9752 30.5186 72.9875 31.6269 70.1958 31.6759C65.3165 31.7493 62.488 30.3595 60.2289 29.3063L58.4719 37.5231C60.7371 38.564 64.9246 39.4702 69.2591 39.5192C79.4525 39.5131 86.1196 34.4801 86.1502 26.6858ZM45.9704 1.42306L30.2487 38.9314H19.9941L12.2618 8.99697C11.7904 7.15401 11.3863 6.4805 9.95371 5.7029C7.62729 4.43548 3.77645 3.24766 0.384766 2.51292L0.617408 1.42306H17.1228C19.2288 1.42306 21.1205 2.82518 21.5981 5.24981L25.6816 26.9552L35.777 1.42306H45.9704Z" fill="#1A1F70"/>
</svg>
