<svg width="13" height="12" viewBox="0 0 13 12" fill="none" xmlns="http://www.w3.org/2000/svg">
    <path fill-rule="evenodd" clip-rule="evenodd" d="M8.33396 0H3.83398C1.76324 0 0.0839844 1.67926 0.0839844 3.75001V8.24999C0.0839844 10.3207 1.76324 12 3.83398 12H8.33399C10.4047 12 12.084 10.3207 12.084 8.24999V3.75001C12.084 1.67926 10.4047 0 8.33396 0ZM10.959 8.24999C10.959 9.6975 9.78147 10.875 8.33396 10.875H3.83398C2.38648 10.875 1.20898 9.6975 1.20898 8.24999V3.75001C1.20898 2.3025 2.38648 1.125 3.83398 1.125H8.33399C9.7815 1.125 10.959 2.3025 10.959 3.75001L10.959 8.24999ZM6.08398 3C4.42724 3 3.08398 4.34326 3.08398 6C3.08398 7.65674 4.42724 9 6.08398 9C7.74071 9 9.08397 7.65674 9.08397 6C9.08397 4.34326 7.74071 3 6.08398 3ZM6.08398 7.875C5.05047 7.875 4.20898 7.03351 4.20898 6C4.20898 4.96574 5.05047 4.125 6.08398 4.125C7.11748 4.125 7.95897 4.96574 7.95897 6C7.95897 7.03351 7.11748 7.875 6.08398 7.875ZM9.08398 8.7C9.08398 8.86569 8.94967 9 8.78398 9C8.6183 9 8.48398 8.86569 8.48398 8.7C8.48398 8.53432 8.6183 8.4 8.78398 8.4C8.94967 8.4 9.08398 8.53432 9.08398 8.7Z" fill="#2A4F5E"/>
</svg>
