<svg width="69" height="81" viewBox="0 0 69 81" fill="none" xmlns="http://www.w3.org/2000/svg">
    <path fill-rule="evenodd" clip-rule="evenodd" d="M55.2571 3.3469C53.3817 1.47154 50.8382 0.417969 48.186 0.417969H10.8965C5.37364 0.417969 0.896484 4.89512 0.896484 10.418V70.418C0.896484 75.9408 5.37364 80.418 10.8965 80.418H58.8965C64.4193 80.418 68.8965 75.9408 68.8965 70.418V21.1284C68.8965 18.4763 67.8429 15.9327 65.9675 14.0574L55.2571 3.3469Z" fill="#006ED2"/>
    <path d="M38.652 20.0454H22.7766V29.9097H24.3179V21.5867H38.0355L48.8759 31.9134V54.5705H24.3179V45.3227H41.9915V34.1226H24.3179H22.7766H19.8481V45.3227H22.7766V56.1118H50.4172V31.2455L38.652 20.0454Z" fill="white"/>
    <path d="M25.8848 38.0781V42.0773H26.7217V40.8163H27.47C28.3126 40.8163 28.8973 40.2676 28.8973 39.4472C28.8973 38.6241 28.332 38.0781 27.5116 38.0781H25.8848ZM26.7217 38.7405H27.2899C27.7694 38.7405 28.0465 38.9955 28.0465 39.45C28.0465 39.9073 27.7666 40.1623 27.2871 40.1623H26.7217V38.7405Z" fill="#006ED2"/>
    <path d="M29.5637 38.0781V42.0773H31.0908C32.2908 42.0773 32.9975 41.3318 32.9975 40.0625C32.9975 38.7932 32.2908 38.0781 31.0908 38.0781H29.5637ZM30.4007 38.7682H30.991C31.7282 38.7682 32.1439 39.2283 32.1439 40.0653C32.1439 40.9299 31.7393 41.3845 30.991 41.3845H30.4007V38.7682Z" fill="#006ED2"/>
    <path d="M34.5452 42.0773V40.5031H36.172V39.8408H34.5452V38.7682H36.3272V38.0781H33.7082V42.0773H34.5452Z" fill="#006ED2"/>
</svg>
