<svg width="17" height="17" viewBox="0 0 17 17" fill="none" xmlns="http://www.w3.org/2000/svg">
    <path fill-rule="evenodd" clip-rule="evenodd" d="M16.2027 15.91C16.0075 16.1052 15.6909 16.1052 15.4956 15.91L0.646448 1.06066C0.451186 0.865401 0.451186 0.548818 0.646448 0.353555C0.841709 0.158292 1.15829 0.158291 1.35355 0.353554L16.2027 15.2029C16.398 15.3981 16.398 15.7147 16.2027 15.91Z" fill="#2A4F5E"/>
    <path fill-rule="evenodd" clip-rule="evenodd" d="M0.797258 15.91C0.99252 16.1052 1.3091 16.1052 1.50436 15.91L16.3536 1.06066C16.5488 0.865401 16.5488 0.548818 16.3536 0.353555C16.1583 0.158292 15.8417 0.158291 15.6464 0.353554L0.797258 15.2029C0.601997 15.3981 0.601997 15.7147 0.797258 15.91Z" fill="#2A4F5E"/>
</svg>
