<svg width="118" height="70" viewBox="0 0 118 70" fill="none" xmlns="http://www.w3.org/2000/svg">
<path d="M26.5254 21.5703V26H13.6055V21.5703H26.5254ZM15.5566 0.40625V26H9.82617V0.40625H15.5566ZM49.5176 12.6406V13.7832C49.5176 15.7285 49.248 17.4746 48.709 19.0215C48.1816 20.5684 47.4258 21.8867 46.4414 22.9766C45.4688 24.0664 44.3086 24.9043 42.9609 25.4902C41.625 26.0645 40.1426 26.3516 38.5137 26.3516C36.8848 26.3516 35.3965 26.0645 34.0488 25.4902C32.7012 24.9043 31.5293 24.0664 30.5332 22.9766C29.5488 21.8867 28.7871 20.5684 28.248 19.0215C27.709 17.4746 27.4395 15.7285 27.4395 13.7832V12.6406C27.4395 10.6953 27.709 8.94922 28.248 7.40234C28.7871 5.84375 29.543 4.51953 30.5156 3.42969C31.5 2.33984 32.666 1.50781 34.0137 0.933594C35.3613 0.347656 36.8496 0.0546875 38.4785 0.0546875C40.1074 0.0546875 41.5957 0.347656 42.9434 0.933594C44.291 1.50781 45.4512 2.33984 46.4238 3.42969C47.4082 4.51953 48.1699 5.84375 48.709 7.40234C49.248 8.94922 49.5176 10.6953 49.5176 12.6406ZM43.7344 13.7832V12.6055C43.7344 11.3047 43.6172 10.1562 43.3828 9.16016C43.1484 8.15234 42.8086 7.30859 42.3633 6.62891C41.918 5.94922 41.3672 5.43945 40.7109 5.09961C40.0547 4.74805 39.3105 4.57227 38.4785 4.57227C37.6113 4.57227 36.8555 4.74805 36.2109 5.09961C35.5664 5.43945 35.0215 5.94922 34.5762 6.62891C34.1426 7.30859 33.8086 8.15234 33.5742 9.16016C33.3516 10.1562 33.2402 11.3047 33.2402 12.6055V13.7832C33.2402 15.0723 33.3516 16.2207 33.5742 17.2285C33.8086 18.2246 34.1484 19.0684 34.5938 19.7598C35.0391 20.4512 35.584 20.9727 36.2285 21.3242C36.8848 21.6758 37.6465 21.8516 38.5137 21.8516C39.3457 21.8516 40.084 21.6758 40.7285 21.3242C41.3848 20.9727 41.9355 20.4512 42.3809 19.7598C42.8262 19.0684 43.1602 18.2246 43.3828 17.2285C43.6172 16.2207 43.7344 15.0723 43.7344 13.7832ZM73.6523 12.4824V22.8008C73.2305 23.2812 72.5859 23.7969 71.7188 24.3477C70.8633 24.8984 69.7676 25.373 68.4316 25.7715C67.0957 26.1582 65.502 26.3516 63.6504 26.3516C61.9746 26.3516 60.4512 26.082 59.0801 25.543C57.709 24.9922 56.5312 24.1895 55.5469 23.1348C54.5625 22.0684 53.8008 20.7676 53.2617 19.2324C52.7344 17.6973 52.4707 15.9395 52.4707 13.959V12.4473C52.4707 10.4668 52.7344 8.70898 53.2617 7.17383C53.7891 5.63867 54.5332 4.34375 55.4941 3.28906C56.4551 2.22266 57.5977 1.41406 58.9219 0.863281C60.2461 0.3125 61.7109 0.0371094 63.3164 0.0371094C65.6016 0.0371094 67.4707 0.40625 68.9238 1.14453C70.377 1.87109 71.4785 2.87891 72.2285 4.16797C72.9902 5.45703 73.459 6.93945 73.6348 8.61523H68.1152C67.998 7.75977 67.7637 7.02148 67.4121 6.40039C67.0723 5.7793 66.5859 5.30469 65.9531 4.97656C65.3203 4.63672 64.5 4.4668 63.4922 4.4668C62.6836 4.4668 61.9512 4.63672 61.2949 4.97656C60.6504 5.30469 60.1055 5.80273 59.6602 6.4707C59.2148 7.13867 58.875 7.9707 58.6406 8.9668C58.4062 9.95117 58.2891 11.0996 58.2891 12.4121V13.959C58.2891 15.2715 58.4062 16.4258 58.6406 17.4219C58.8867 18.418 59.2441 19.25 59.7129 19.918C60.1816 20.5742 60.7734 21.0723 61.4883 21.4121C62.2148 21.752 63.0586 21.9219 64.0195 21.9219C64.7695 21.9219 65.4023 21.8633 65.918 21.7461C66.4336 21.6172 66.8555 21.459 67.1836 21.2715C67.5117 21.0723 67.7578 20.8906 67.9219 20.7266V16.4727H63.3691V12.4824H73.6523ZM98.9121 12.6406V13.7832C98.9121 15.7285 98.6426 17.4746 98.1035 19.0215C97.5762 20.5684 96.8203 21.8867 95.8359 22.9766C94.8633 24.0664 93.7031 24.9043 92.3555 25.4902C91.0195 26.0645 89.5371 26.3516 87.9082 26.3516C86.2793 26.3516 84.791 26.0645 83.4434 25.4902C82.0957 24.9043 80.9238 24.0664 79.9277 22.9766C78.9434 21.8867 78.1816 20.5684 77.6426 19.0215C77.1035 17.4746 76.834 15.7285 76.834 13.7832V12.6406C76.834 10.6953 77.1035 8.94922 77.6426 7.40234C78.1816 5.84375 78.9375 4.51953 79.9102 3.42969C80.8945 2.33984 82.0605 1.50781 83.4082 0.933594C84.7559 0.347656 86.2441 0.0546875 87.873 0.0546875C89.502 0.0546875 90.9902 0.347656 92.3379 0.933594C93.6855 1.50781 94.8457 2.33984 95.8184 3.42969C96.8027 4.51953 97.5645 5.84375 98.1035 7.40234C98.6426 8.94922 98.9121 10.6953 98.9121 12.6406ZM93.1289 13.7832V12.6055C93.1289 11.3047 93.0117 10.1562 92.7773 9.16016C92.543 8.15234 92.2031 7.30859 91.7578 6.62891C91.3125 5.94922 90.7617 5.43945 90.1055 5.09961C89.4492 4.74805 88.7051 4.57227 87.873 4.57227C87.0059 4.57227 86.25 4.74805 85.6055 5.09961C84.9609 5.43945 84.416 5.94922 83.9707 6.62891C83.5371 7.30859 83.2031 8.15234 82.9688 9.16016C82.7461 10.1562 82.6348 11.3047 82.6348 12.6055V13.7832C82.6348 15.0723 82.7461 16.2207 82.9688 17.2285C83.2031 18.2246 83.543 19.0684 83.9883 19.7598C84.4336 20.4512 84.9785 20.9727 85.623 21.3242C86.2793 21.6758 87.041 21.8516 87.9082 21.8516C88.7402 21.8516 89.4785 21.6758 90.123 21.3242C90.7793 20.9727 91.3301 20.4512 91.7754 19.7598C92.2207 19.0684 92.5547 18.2246 92.7773 17.2285C93.0117 16.2207 93.1289 15.0723 93.1289 13.7832ZM6.16992 46.6367V69.3125H0.685547V42.9805H5.80078L6.16992 46.6367ZM18.0352 52.2793V52.6484C18.0352 54.0312 17.877 55.3145 17.5605 56.498C17.2441 57.6699 16.7695 58.6953 16.1367 59.5742C15.5156 60.4531 14.748 61.1387 13.834 61.6309C12.9199 62.1113 11.8594 62.3516 10.6523 62.3516C9.50391 62.3516 8.50781 62.1113 7.66406 61.6309C6.83203 61.1387 6.12891 60.459 5.55469 59.5918C4.99219 58.7129 4.53516 57.7109 4.18359 56.5859C3.84375 55.4492 3.58008 54.2363 3.39258 52.9473V52.2266C3.58008 50.8555 3.84961 49.584 4.20117 48.4121C4.55273 47.2402 5.00977 46.2266 5.57227 45.3711C6.13477 44.5039 6.83203 43.8301 7.66406 43.3496C8.49609 42.8691 9.48633 42.6289 10.6348 42.6289C11.8301 42.6289 12.8906 42.8574 13.8164 43.3145C14.7422 43.7715 15.5156 44.4277 16.1367 45.2832C16.7695 46.127 17.2441 47.1406 17.5605 48.3242C17.877 49.5078 18.0352 50.8262 18.0352 52.2793ZM12.5332 52.6484V52.2793C12.5332 51.5059 12.4746 50.7969 12.3574 50.1523C12.2402 49.4961 12.0527 48.9277 11.7949 48.4473C11.5371 47.9551 11.1973 47.5742 10.7754 47.3047C10.3535 47.0352 9.83789 46.9004 9.22852 46.9004C8.57227 46.9004 8.01562 47.0059 7.55859 47.2168C7.10156 47.4277 6.73242 47.7383 6.45117 48.1484C6.16992 48.5469 5.96484 49.0391 5.83594 49.625C5.71875 50.2109 5.6543 50.8789 5.64258 51.6289V53.5625C5.6543 54.4414 5.77734 55.2266 6.01172 55.918C6.25781 56.5977 6.63867 57.1309 7.1543 57.5176C7.68164 57.8926 8.38477 58.0801 9.26367 58.0801C9.88477 58.0801 10.4004 57.9453 10.8105 57.6758C11.2324 57.3945 11.5664 57.002 11.8125 56.498C12.0703 55.9941 12.252 55.4141 12.3574 54.7578C12.4746 54.1016 12.5332 53.3984 12.5332 52.6484ZM31.0254 57.4648V49.3086C31.0254 48.7344 30.9375 48.2422 30.7617 47.832C30.5859 47.4219 30.3105 47.0996 29.9355 46.8652C29.5605 46.6309 29.0742 46.5137 28.4766 46.5137C27.9727 46.5137 27.5332 46.6016 27.1582 46.7773C26.7949 46.9531 26.5137 47.2051 26.3145 47.5332C26.127 47.8613 26.0332 48.2656 26.0332 48.7461H20.5488C20.5488 47.8906 20.7422 47.0938 21.1289 46.3555C21.5156 45.6172 22.0664 44.9668 22.7812 44.4043C23.5078 43.8418 24.375 43.4082 25.3828 43.1035C26.3906 42.7871 27.5215 42.6289 28.7754 42.6289C30.2637 42.6289 31.5879 42.8809 32.748 43.3848C33.9199 43.877 34.8457 44.6211 35.5254 45.6172C36.2051 46.6016 36.5449 47.8438 36.5449 49.3438V57.3066C36.5449 58.4551 36.6094 59.3574 36.7383 60.0137C36.8789 60.6582 37.0781 61.2207 37.3359 61.7012V62H31.7988C31.541 61.4492 31.3477 60.7695 31.2188 59.9609C31.0898 59.1406 31.0254 58.3086 31.0254 57.4648ZM31.7109 50.3984L31.7461 53.4219H29.0215C28.4121 53.4219 27.8848 53.498 27.4395 53.6504C27.0059 53.8027 26.6543 54.0137 26.3848 54.2832C26.1152 54.541 25.916 54.8457 25.7871 55.1973C25.6699 55.5371 25.6113 55.9121 25.6113 56.3223C25.6113 56.709 25.7051 57.0605 25.8926 57.377C26.0801 57.6816 26.3379 57.9219 26.666 58.0977C26.9941 58.2734 27.375 58.3613 27.8086 58.3613C28.5234 58.3613 29.1328 58.2207 29.6367 57.9395C30.1523 57.6582 30.5508 57.3184 30.832 56.9199C31.1133 56.5098 31.2539 56.1289 31.2539 55.7773L32.5723 58.0625C32.3613 58.5312 32.1035 59.0176 31.7988 59.5215C31.4941 60.0137 31.1074 60.4766 30.6387 60.9102C30.1699 61.332 29.6016 61.6777 28.9336 61.9473C28.2773 62.2168 27.4863 62.3516 26.5605 62.3516C25.3652 62.3516 24.2812 62.1113 23.3086 61.6309C22.3359 61.1387 21.5566 60.4648 20.9707 59.6094C20.3965 58.7539 20.1094 57.7695 20.1094 56.6562C20.1094 55.6602 20.291 54.7754 20.6543 54.002C21.0176 53.2285 21.5625 52.5723 22.2891 52.0332C23.0273 51.4941 23.9531 51.0898 25.0664 50.8203C26.1797 50.5391 27.4805 50.3984 28.9688 50.3984H31.7109ZM45.6504 47.4102V62H40.166V42.9805H45.3164L45.6504 47.4102ZM51.3281 42.8398L51.2402 47.9551C51.0059 47.9199 50.7012 47.8906 50.3262 47.8672C49.9512 47.832 49.6289 47.8145 49.3594 47.8145C48.6562 47.8145 48.0469 47.9023 47.5312 48.0781C47.0273 48.2422 46.6055 48.4883 46.2656 48.8164C45.9375 49.1445 45.6914 49.5547 45.5273 50.0469C45.3633 50.5273 45.2812 51.084 45.2812 51.7168L44.2441 51.207C44.2441 49.9531 44.3672 48.8047 44.6133 47.7617C44.8594 46.7188 45.2168 45.8164 45.6855 45.0547C46.1543 44.2812 46.7285 43.6836 47.4082 43.2617C48.0879 42.8398 48.8613 42.6289 49.7285 42.6289C50.0098 42.6289 50.2969 42.6465 50.5898 42.6816C50.8828 42.7168 51.1289 42.7695 51.3281 42.8398ZM64.125 42.9805V46.8301H52.8398V42.9805H64.125ZM55.4238 38.2695H60.9258V56.041C60.9258 56.5684 60.9902 56.9727 61.1191 57.2539C61.248 57.5352 61.459 57.7344 61.752 57.8516C62.0449 57.957 62.4199 58.0098 62.877 58.0098C63.2051 58.0098 63.4863 57.998 63.7207 57.9746C63.9551 57.9512 64.1719 57.9219 64.3711 57.8867V61.8594C63.9023 62.0117 63.4043 62.1289 62.877 62.2109C62.3496 62.3047 61.7754 62.3516 61.1543 62.3516C59.9707 62.3516 58.9453 62.1582 58.0781 61.7715C57.2227 61.3848 56.5664 60.7754 56.1094 59.9434C55.6523 59.0996 55.4238 58.0039 55.4238 56.6562V38.2695ZM72.1406 47.041V62H66.6387V42.9805H71.8066L72.1406 47.041ZM71.4199 51.8223L70.0488 51.8574C70.0488 50.4277 70.2246 49.1445 70.5762 48.0078C70.9277 46.8711 71.4258 45.9043 72.0703 45.1074C72.7266 44.2988 73.5059 43.6836 74.4082 43.2617C75.3223 42.8398 76.3301 42.6289 77.4316 42.6289C78.3223 42.6289 79.1367 42.7578 79.875 43.0156C80.6133 43.2734 81.2461 43.6895 81.7734 44.2637C82.3125 44.8262 82.7227 45.5762 83.0039 46.5137C83.2852 47.4395 83.4258 48.582 83.4258 49.9414V62H77.9062V49.9238C77.9062 49.127 77.7949 48.5117 77.5723 48.0781C77.3496 47.6445 77.0215 47.3398 76.5879 47.1641C76.166 46.9883 75.6504 46.9004 75.041 46.9004C74.3965 46.9004 73.8457 47.0293 73.3887 47.2871C72.9316 47.5332 72.5566 47.8789 72.2637 48.3242C71.9707 48.7695 71.7539 49.291 71.6133 49.8887C71.4844 50.4863 71.4199 51.1309 71.4199 51.8223ZM95.9766 62.3516C94.4648 62.3516 93.1113 62.1113 91.916 61.6309C90.7207 61.1504 89.707 60.4883 88.875 59.6445C88.0547 58.7891 87.4277 57.8047 86.9941 56.6914C86.5605 55.5781 86.3438 54.3887 86.3438 53.123V52.4551C86.3438 51.0371 86.543 49.7305 86.9414 48.5352C87.3398 47.3398 87.9199 46.3027 88.6816 45.4238C89.4551 44.5332 90.4043 43.8477 91.5293 43.3672C92.6543 42.875 93.9375 42.6289 95.3789 42.6289C96.7266 42.6289 97.9277 42.8516 98.9824 43.2969C100.037 43.7305 100.928 44.3574 101.654 45.1777C102.381 45.9863 102.932 46.9648 103.307 48.1133C103.693 49.25 103.887 50.5273 103.887 51.9453V54.1953H88.5586V50.6621H98.5078V50.2402C98.5078 49.5723 98.3848 48.9863 98.1387 48.4824C97.9043 47.9785 97.5527 47.5918 97.084 47.3223C96.627 47.041 96.0469 46.9004 95.3438 46.9004C94.6758 46.9004 94.1191 47.041 93.6738 47.3223C93.2285 47.6035 92.8711 48.002 92.6016 48.5176C92.3438 49.0215 92.1562 49.6133 92.0391 50.293C91.9219 50.9609 91.8633 51.6816 91.8633 52.4551V53.123C91.8633 53.8613 91.9629 54.5352 92.1621 55.1445C92.3613 55.7539 92.6543 56.2754 93.041 56.709C93.4277 57.1426 93.8965 57.4824 94.4473 57.7285C94.998 57.9746 95.625 58.0977 96.3281 58.0977C97.1953 58.0977 98.0215 57.9336 98.8066 57.6055C99.5918 57.2656 100.271 56.7383 100.846 56.0234L103.412 58.959C103.025 59.5215 102.48 60.0664 101.777 60.5938C101.086 61.1094 100.254 61.5312 99.2812 61.8594C98.3086 62.1875 97.207 62.3516 95.9766 62.3516ZM112.061 47.4102V62H106.576V42.9805H111.727L112.061 47.4102ZM117.738 42.8398L117.65 47.9551C117.416 47.9199 117.111 47.8906 116.736 47.8672C116.361 47.832 116.039 47.8145 115.77 47.8145C115.066 47.8145 114.457 47.9023 113.941 48.0781C113.438 48.2422 113.016 48.4883 112.676 48.8164C112.348 49.1445 112.102 49.5547 111.938 50.0469C111.773 50.5273 111.691 51.084 111.691 51.7168L110.654 51.207C110.654 49.9531 110.777 48.8047 111.023 47.7617C111.27 46.7188 111.627 45.8164 112.096 45.0547C112.564 44.2812 113.139 43.6836 113.818 43.2617C114.498 42.8398 115.271 42.6289 116.139 42.6289C116.42 42.6289 116.707 42.6465 117 42.6816C117.293 42.7168 117.539 42.7695 117.738 42.8398Z" fill="#454545"/>
</svg>
