<svg width="49" height="48" viewBox="0 0 49 48" fill="none" xmlns="http://www.w3.org/2000/svg">
    <path fill-rule="evenodd" clip-rule="evenodd" d="M33.2661 0.257812H15.4763C7.29009 0.257812 0.651489 6.89642 0.651489 15.0827V32.8725C0.651489 41.0587 7.29009 47.6974 15.4763 47.6974H33.2662C41.4524 47.6974 48.091 41.0587 48.091 32.8725V15.0827C48.0909 6.89642 41.4524 0.257812 33.2661 0.257812ZM43.6435 32.8725C43.6435 38.5949 38.9885 43.2499 33.2661 43.2499H15.4763C9.75392 43.2499 5.09892 38.5949 5.09892 32.8725V15.0827C5.09892 9.36026 9.75392 4.70526 15.4763 4.70526H33.2662C38.9886 4.70526 43.6436 9.36026 43.6436 15.0827V32.8725H43.6435ZM24.3711 12.1179C17.8215 12.1179 12.5113 17.4282 12.5113 23.9778C12.5113 30.5273 17.8215 35.8376 24.3711 35.8376C30.9207 35.8376 36.231 30.5273 36.231 23.9778C36.231 17.4282 30.9207 12.1179 24.3711 12.1179ZM24.3711 31.3902C20.2854 31.3902 16.9587 28.0635 16.9587 23.9778C16.9587 19.889 20.2854 16.5653 24.3711 16.5653C28.4569 16.5653 31.7835 19.889 31.7835 23.9778C31.7835 28.0635 28.4569 31.3902 24.3711 31.3902ZM36.231 34.6517C36.231 35.3067 35.7001 35.8376 35.045 35.8376C34.39 35.8376 33.8591 35.3067 33.8591 34.6517C33.8591 33.9967 34.39 33.4657 35.045 33.4657C35.7001 33.4657 36.231 33.9967 36.231 34.6517Z" fill="white"/>
</svg>
