<svg width="110" height="82" viewBox="0 0 110 82" fill="none" xmlns="http://www.w3.org/2000/svg">
    <path d="M94.5789 37.0187C94.5789 61.2387 74.941 80.8766 50.7209 80.8766C26.5009 80.8766 11.1179 65.1663 16.3546 45.5284C21.5914 25.8905 41.2293 6.25262 60.2126 1.67045C79.1959 -2.91172 94.5789 12.7986 94.5789 37.0187Z" fill="#FFE600"/>
    <path d="M71.9951 40.2916C71.9951 39.637 71.9951 38.6551 71.9951 38.0005" stroke="#2A4F5E" stroke-width="2" stroke-miterlimit="10" stroke-linecap="round"/>
    <path d="M71.6676 30.7999V30.4726C70.6857 22.2901 63.4852 15.7441 54.9754 15.7441C45.8111 15.7441 38.2832 23.272 38.2832 32.4363V38.0004C38.2832 42.9099 36.3194 47.4921 33.3737 50.765L30.1008 54.038C24.864 59.6021 28.7916 67.1299 36.6467 69.0937C48.7568 71.7121 61.1941 71.3848 73.6314 69.0937C80.832 67.1299 85.4141 59.6021 80.1774 54.038L76.9044 50.765C75.9225 49.7831 74.9406 48.474 74.286 47.1648" stroke="#2A4F5E" stroke-width="2" stroke-miterlimit="10" stroke-linecap="round"/>
    <path d="M54.9757 14.7623C58.5909 14.7623 61.5217 11.8316 61.5217 8.21637C61.5217 4.60114 58.5909 1.67041 54.9757 1.67041C51.3605 1.67041 48.4297 4.60114 48.4297 8.21637C48.4297 11.8316 51.3605 14.7623 54.9757 14.7623Z" stroke="#2A4F5E" stroke-width="2" stroke-miterlimit="10"/>
    <path d="M45.8112 70.7303V71.0576C45.8112 75.9671 49.7388 80.222 54.9756 80.222C57.594 80.222 59.885 79.2401 61.5215 77.6036" stroke="#2A4F5E" stroke-width="2" stroke-miterlimit="10" stroke-linecap="round"/>
    <path d="M11.1173 60.2567H20.2817" stroke="#2A4F5E" stroke-width="2" stroke-miterlimit="10" stroke-linecap="round"/>
    <path d="M1.62598 60.2567H3.91706" stroke="#2A4F5E" stroke-width="2" stroke-miterlimit="10" stroke-linecap="round"/>
    <path d="M17.0089 41.2734L23.5548 47.8194" stroke="#2A4F5E" stroke-width="2" stroke-miterlimit="10" stroke-linecap="round"/>
    <path d="M23.5548 72.3668L17.0089 78.9128" stroke="#2A4F5E" stroke-width="2" stroke-miterlimit="10" stroke-linecap="round"/>
    <path d="M98.8333 60.2567H89.6689" stroke="#2A4F5E" stroke-width="2" stroke-miterlimit="10" stroke-linecap="round"/>
    <path d="M108.325 60.2567H106.034" stroke="#2A4F5E" stroke-width="2" stroke-miterlimit="10" stroke-linecap="round"/>
    <path d="M92.942 78.9128L86.396 72.3668" stroke="#2A4F5E" stroke-width="2" stroke-miterlimit="10" stroke-linecap="round"/>
    <path d="M86.3959 47.8194L92.9418 41.2734" stroke="#2A4F5E" stroke-width="2" stroke-miterlimit="10" stroke-linecap="round"/>
    <path d="M43.8475 46.8375C43.5202 47.8194 43.1929 48.8013 42.5383 49.7832C41.2291 52.4016 39.5926 54.6927 37.6288 56.9838" stroke="#2A4F5E" stroke-width="2" stroke-miterlimit="10" stroke-linecap="round"/>
    <path d="M45.4836 32.1091V38.0005C45.4836 38.9824 45.4836 39.9643 45.4836 40.9462" stroke="#2A4F5E" stroke-width="2" stroke-miterlimit="10" stroke-linecap="round"/>
</svg>
