<svg width="18" height="19" viewBox="0 0 18 19" fill="none" xmlns="http://www.w3.org/2000/svg">
    <path d="M13 11.5571H12.21L11.93 11.2871C12.91 10.1471 13.5 8.66713 13.5 7.05713C13.5 3.46713 10.59 0.557129 7 0.557129C3.41 0.557129 0.5 3.46713 0.5 7.05713C0.5 10.6471 3.41 13.5571 7 13.5571C8.61 13.5571 10.09 12.9671 11.23 11.9871L11.5 12.2671V13.0571L16.5 18.0471L17.99 16.5571L13 11.5571ZM7 11.5571C4.51 11.5571 2.5 9.54713 2.5 7.05713C2.5 4.56713 4.51 2.55713 7 2.55713C9.49 2.55713 11.5 4.56713 11.5 7.05713C11.5 9.54713 9.49 11.5571 7 11.5571Z" fill="white"/>
</svg>
