<svg width="16" height="14" viewBox="0 0 16 14" fill="none" xmlns="http://www.w3.org/2000/svg">
    <path d="M0.349526 6.71915L3.97286 8.0715L5.37531 12.5818C5.46505 12.8706 5.81828 12.9774 6.05274 12.7857L8.07244 11.1392C8.28415 10.9667 8.58571 10.9581 8.80696 11.1187L12.4498 13.7635C12.7006 13.9458 13.0559 13.8084 13.1188 13.5053L15.7874 0.668997C15.8561 0.337936 15.5308 0.0617539 15.2155 0.183674L0.34528 5.92017C-0.021687 6.0617 -0.0184896 6.58125 0.349526 6.71915ZM5.14929 7.35161L12.2306 2.9902C12.3579 2.91205 12.4888 3.08413 12.3795 3.18551L6.53539 8.61794C6.32997 8.80915 6.19746 9.06505 6.15993 9.3428L5.96085 10.8181C5.93449 11.0151 5.65778 11.0346 5.60343 10.844L4.83778 8.15374C4.75009 7.84689 4.87788 7.51913 5.14929 7.35161Z" fill="#2A4F5E"/>
</svg>
