<svg width="87" height="82" viewBox="0 0 87 82" fill="none" xmlns="http://www.w3.org/2000/svg">
<path d="M82.9039 37.0185C82.9039 61.2386 63.266 80.8765 39.046 80.8765C14.8259 80.8765 -0.557114 65.1662 5.00695 45.5283C10.571 25.8904 29.8816 6.2525 48.8649 1.67033C67.8482 -2.91184 82.9039 12.7985 82.9039 37.0185Z" fill="#FFE600"/>
<path d="M74.0674 80.2218V41.9279L43.3014 12.1438L12.8627 41.9279V80.2218" stroke="#2A4F5E" stroke-width="2" stroke-miterlimit="10" stroke-linecap="round"/>
<path d="M85.8498 42.9099L43.3011 1.67029L1.07962 42.9099" stroke="#2A4F5E" stroke-width="2" stroke-miterlimit="10" stroke-linecap="round"/>
<path d="M2.06171 80.2218H78.6494" stroke="#2A4F5E" stroke-width="2" stroke-miterlimit="10" stroke-linecap="round"/>
<path d="M83.2318 80.2218H85.8501" stroke="#2A4F5E" stroke-width="2" stroke-miterlimit="10" stroke-linecap="round"/>
<path d="M42.9737 40.946C35.7731 40.946 29.5544 46.8374 29.5544 54.3653V80.2218H56.0656V54.3653C56.3929 46.8374 50.5015 40.946 42.9737 40.946Z" stroke="#2A4F5E" stroke-width="2" stroke-miterlimit="10" stroke-linecap="round"/>
<path d="M12.8627 46.8374H23.3362" stroke="#2A4F5E" stroke-width="2" stroke-miterlimit="10" stroke-linecap="round"/>
<path d="M61.3022 46.8374H74.0668" stroke="#2A4F5E" stroke-width="2" stroke-miterlimit="10" stroke-linecap="round"/>
<path d="M67.1936 58.2928H74.0669" stroke="#2A4F5E" stroke-width="2" stroke-miterlimit="10" stroke-linecap="round"/>
<path d="M61.3022 58.2928H62.9387" stroke="#2A4F5E" stroke-width="2" stroke-miterlimit="10" stroke-linecap="round"/>
<path d="M62.9387 69.0938H56.3927" stroke="#2A4F5E" stroke-width="2" stroke-miterlimit="10" stroke-linecap="round"/>
<path d="M68.8303 69.0938H67.1938" stroke="#2A4F5E" stroke-width="2" stroke-miterlimit="10" stroke-linecap="round"/>
<path d="M19.7359 69.0938H12.8627" stroke="#2A4F5E" stroke-width="2" stroke-miterlimit="10" stroke-linecap="round"/>
<path d="M25.6271 69.0938H23.9906" stroke="#2A4F5E" stroke-width="2" stroke-miterlimit="10" stroke-linecap="round"/>
<path d="M23.0337 58.2928H29.5544" stroke="#2A4F5E" stroke-width="2" stroke-miterlimit="10" stroke-linecap="round"/>
<path d="M17.4445 58.2928H18.9971" stroke="#2A4F5E" stroke-width="2" stroke-miterlimit="10" stroke-linecap="round"/>
</svg>
