<svg width="18" height="14" viewBox="0 0 18 14" fill="none" xmlns="http://www.w3.org/2000/svg">
    <path d="M17.2204 1.67736C16.5885 1.95736 15.9105 2.14725 15.1981 2.23203C15.9255 1.79645 16.4823 1.10555 16.7462 0.284818C16.0639 0.688197 15.3107 0.981103 14.5082 1.13988C13.8656 0.454344 12.9516 0.0273438 11.9377 0.0273438C9.99265 0.0273438 8.41557 1.60442 8.41557 3.54841C8.41557 3.82412 8.44668 4.0934 8.50677 4.3509C5.58007 4.2039 2.98488 2.80171 1.24796 0.671029C0.944333 1.1903 0.771608 1.79535 0.771608 2.44123C0.771608 3.6632 1.39386 4.74141 2.33797 5.37221C1.76077 5.35291 1.21791 5.19413 0.742657 4.93021V4.97419C0.742657 6.68001 1.95712 8.10366 3.56744 8.42768C3.2724 8.50707 2.96129 8.55106 2.63943 8.55106C2.412 8.55106 2.19206 8.52853 1.97642 8.48561C2.42485 9.88567 3.72516 10.9038 5.26576 10.9317C4.06095 11.8758 2.54181 12.4369 0.891789 12.4369C0.607496 12.4369 0.327467 12.4197 0.0517578 12.3886C1.6106 13.3896 3.46126 13.9732 5.4503 13.9732C11.9292 13.9732 15.4706 8.60685 15.4706 3.95288L15.4588 3.49693C16.1508 3.00339 16.7494 2.3833 17.2204 1.67736Z" fill="#2A4F5E"/>
</svg>
