<svg width="18" height="12" viewBox="0 0 18 12" fill="none" xmlns="http://www.w3.org/2000/svg">
    <path d="M16.4472 1.28487C15.9841 0.465024 15.4815 0.314229 14.4582 0.256892C13.4359 0.187862 10.8653 0.15918 8.63834 0.15918C6.40707 0.15918 3.83546 0.187862 2.81425 0.255821C1.79305 0.314229 1.2894 0.463953 0.822017 1.28487C0.345036 2.10365 0.0996094 3.51394 0.0996094 5.99681C0.0996094 5.99893 0.0996094 6 0.0996094 6C0.0996094 6.00211 0.0996094 6.00318 0.0996094 6.00318V6.00529C0.0996094 8.47754 0.345036 9.89846 0.822017 10.7088C1.2894 11.5286 1.79198 11.6773 2.81318 11.7463C3.83543 11.8058 6.40707 11.8408 8.63834 11.8408C10.8653 11.8408 13.4359 11.8058 14.4592 11.7474C15.4826 11.6783 15.9852 11.5296 16.4482 10.7098C16.9295 9.89956 17.1728 8.47864 17.1728 6.00636C17.1728 6.00636 17.1728 6.00318 17.1728 6.00107C17.1728 6.00107 17.1728 5.99895 17.1728 5.99788C17.1728 3.51394 16.9295 2.10365 16.4472 1.28487ZM6.50206 9.1859V2.81409L11.8374 6L6.50206 9.1859Z" fill="#2A4F5E"/>
</svg>
