<svg width="90" height="97" viewBox="0 0 90 97" fill="none" xmlns="http://www.w3.org/2000/svg">
<path d="M46.142 3.35889C70.3621 3.35889 90 22.9968 90 47.2168C90 71.4369 74.2897 86.8199 54.6518 81.2558C35.0139 75.6918 15.376 56.3812 10.7939 37.3979C6.21169 18.7419 21.922 3.35889 46.142 3.35889Z" fill="#FFE600"/>
<path d="M54.8089 49.3255L40.6044 55.199L2.26734 39.3415C2.1026 39.2733 2.1026 39.04 2.26733 38.9718L40.6044 23.1122L78.9538 38.9721C79.1186 39.0402 79.1186 39.2736 78.9538 39.3417L60.0281 47.1674" stroke="#2A4F5E" stroke-width="2" stroke-linecap="round"/>
<path d="M1.82056 42.3099L1.82056 44.2597C1.82056 44.3406 1.86933 44.4136 1.94411 44.4445L40.6044 60.4379L55.7689 54.1664M79.4008 42.3099L79.4008 44.2594C79.4008 44.3403 79.352 44.4133 79.2772 44.4442L61.0573 51.9793" stroke="#2A4F5E" stroke-width="2" stroke-linecap="round"/>
<path d="M44.8222 39.1568C44.8222 39.7102 44.4939 40.3241 43.7324 40.8433C42.976 41.3591 41.8753 41.7103 40.6106 41.7103C39.346 41.7103 38.2453 41.3591 37.4889 40.8433C36.7274 40.3241 36.3991 39.7102 36.3991 39.1568C36.3991 38.6034 36.7274 37.9895 37.4889 37.4703C38.2453 36.9545 39.346 36.6033 40.6106 36.6033C41.8753 36.6033 42.976 36.9545 43.7324 37.4703C44.4939 37.9895 44.8222 38.6034 44.8222 39.1568Z" stroke="#2A4F5E" stroke-width="2"/>
<path d="M14.1804 55.6188V63.048C14.1804 72.0472 26.0136 79.3424 40.6107 79.3424C55.2077 79.3424 67.041 72.0472 67.041 63.048V55.6188" stroke="#2A4F5E" stroke-width="2" stroke-linecap="round"/>
<line x1="40.6484" y1="78.6442" x2="40.6484" y2="65.5692" stroke="#2A4F5E" stroke-width="2" stroke-linecap="round"/>
<path d="M44.2182 40.5037L60.4344 47.0101V82.2453" stroke="#2A4F5E" stroke-width="2"/>
<circle cx="60.6049" cy="84.4805" r="2.90387" stroke="#2A4F5E" stroke-width="2"/>
<line x1="60.6299" y1="91.2444" x2="60.6299" y2="95.0685" stroke="#2A4F5E" stroke-width="2" stroke-linecap="round"/>
<line x1="56.6758" y1="89.5994" x2="55.2452" y2="95.2455" stroke="#2A4F5E" stroke-width="2" stroke-linecap="round"/>
<line x1="1" y1="-1" x2="6.82456" y2="-1" transform="matrix(0.245613 0.969368 0.969368 -0.245613 65.3613 88.3844)" stroke="#2A4F5E" stroke-width="2" stroke-linecap="round"/>
</svg>
