<svg width="80" height="82" viewBox="0 0 80 82" fill="none" xmlns="http://www.w3.org/2000/svg">
<path d="M36.1421 1.35889C60.3621 1.35889 80 20.9968 80 45.2168C80 69.4369 64.2897 84.8199 44.6518 79.2558C25.0139 73.6918 5.37604 54.3812 0.793864 35.3979C-3.78831 16.4146 11.922 1.35889 36.1421 1.35889Z" fill="#FFE600"/>
<path d="M67.8894 7.25024H20.1039V72.0553H67.8894V7.25024Z" stroke="#2A4F5E" stroke-width="2" stroke-miterlimit="10" stroke-linecap="round"/>
<path d="M22.7226 80.2378H12.249V15.4327H20.1042" stroke="#2A4F5E" stroke-width="2" stroke-miterlimit="10" stroke-linecap="round"/>
<path d="M35.1596 80.2377H29.9228" stroke="#2A4F5E" stroke-width="2" stroke-miterlimit="10" stroke-linecap="round"/>
<path d="M60.0348 72.3826V80.2377H42.0334" stroke="#2A4F5E" stroke-width="2" stroke-miterlimit="10" stroke-linecap="round"/>
<path d="M49.8885 22.9606H41.0514" stroke="#2A4F5E" stroke-width="2" stroke-miterlimit="10" stroke-linecap="round"/>
<path d="M59.3796 22.9606H56.1066" stroke="#2A4F5E" stroke-width="2" stroke-miterlimit="10" stroke-linecap="round"/>
<path d="M59.3801 17.0692H41.0514" stroke="#2A4F5E" stroke-width="2" stroke-miterlimit="10" stroke-linecap="round"/>
<path d="M27.3051 5.28644C27.3051 3.32265 28.9415 1.68616 30.9053 1.68616C32.8691 1.68616 34.5056 3.32265 34.5056 5.28644V19.3603C34.5056 21.324 32.8691 22.9605 30.9053 22.9605C28.9415 22.9605 27.3051 21.324 27.3051 19.3603V14.7781" stroke="#2A4F5E" stroke-width="2" stroke-miterlimit="10" stroke-linecap="round"/>
<path d="M61.3434 51.4355C61.3434 52.7446 59.7069 53.7265 59.0523 54.7084C58.725 56.0176 59.7069 57.6541 58.725 58.636C58.0704 59.6179 56.1066 59.2906 55.1247 59.9452C54.1429 60.5998 53.8156 62.5636 52.8337 62.8909C51.8518 63.2182 50.2153 61.909 48.9061 61.909C47.5969 61.909 46.2877 63.2182 44.9785 62.8909C43.6693 62.5636 43.342 60.5998 42.6874 59.9452C41.7055 59.2906 39.7417 59.6179 39.0871 58.636C38.4325 57.6541 39.4144 56.0176 38.7598 54.7084C38.4325 53.7265 36.4688 52.7446 36.4688 51.4355C36.4688 50.1263 38.1052 49.1444 38.7598 48.1625C39.0871 46.8533 38.1052 45.2168 39.0871 44.2349C39.7417 43.253 41.7055 43.5803 42.6874 42.9257C43.6693 42.2711 43.9966 40.3073 44.9785 39.98C45.9604 39.6527 47.5969 40.9619 48.9061 40.9619C50.2153 40.9619 51.5245 39.6527 52.8337 39.98C54.1428 40.3073 54.4701 42.2711 55.1247 42.9257C56.1066 43.5803 58.0704 43.253 58.725 44.2349C59.3796 45.2168 58.3977 46.8533 59.0523 48.1625C59.3796 49.4717 61.3434 50.1263 61.3434 51.4355Z" stroke="#2A4F5E" stroke-width="2" stroke-miterlimit="10" stroke-linecap="round"/>
<path d="M54.7973 51.4354C54.7973 54.7084 52.1789 57.3268 48.906 57.3268C45.633 57.3268 43.0146 54.7084 43.0146 51.4354C43.0146 48.1625 45.633 45.5441 48.906 45.5441" stroke="#2A4F5E" stroke-width="2" stroke-miterlimit="10" stroke-linecap="round"/>
<path d="M52.8335 47.1805C53.1608 47.5078 53.4881 47.8351 53.8154 48.1624" stroke="#2A4F5E" stroke-width="2" stroke-miterlimit="10" stroke-linecap="round"/>
</svg>
