<svg width="247" height="53" viewBox="0 0 247 53" fill="none" xmlns="http://www.w3.org/2000/svg">
    <path d="M35.099 0.114258L30.443 30.5805C29.9875 33.5158 27.4571 35.6919 24.5218 35.6919C21.9914 35.6919 20.0683 33.4652 20.4731 30.9854L25.1797 0.114258H5.24001L0.73587 29.6189C-1.13664 41.9168 8.37773 53 20.8274 53H23.9145C37.1739 53 48.409 43.3338 50.4333 30.2262L54.988 0.114258H35.099Z" fill="#FFE600"/>
    <path d="M140.414 53H160.354L149.575 0.114258H143.704H134.898H127.914L100.839 53H120.778L123.41 46.8764H139.757L140.414 53ZM129.281 33.364L136.619 16.4608L138.39 33.364H129.281Z" fill="white"/>
    <path d="M160.759 0.114258H181.559L183.432 27.3416L195.072 0.114258H210.558L213.139 27.3416L223.919 0.114258H246.338L222.097 53H200.386L198.614 31.036L189.657 53H168.604L160.759 0.114258Z" fill="white"/>
    <path d="M91.527 0.114258H82.9742H73.8647H63.0851L54.9877 53H74.9274L76.7493 40.9552H85.0491C96.9927 40.9552 107.165 32.2506 108.936 20.4082C110.606 9.72985 102.357 0.114258 91.527 0.114258ZM101.143 8.76829C102.56 10.4384 102.256 12.9688 100.434 14.1834C97.6 16.0053 93.3489 16.1065 91.1727 13.981C90.1099 12.9182 89.9075 11.2481 90.5654 9.88167C92.7416 5.37753 98.0555 5.17509 101.143 8.76829ZM81.2029 5.42814C81.709 2.44224 85.5046 0.873383 89.6039 1.88555C91.3245 2.34103 92.2355 4.21354 91.4764 5.833C90.6666 7.50308 89.1484 9.07194 87.2759 9.88167C84.1888 11.2481 80.6462 8.76829 81.2029 5.42814ZM77.4072 23.4953C77.1542 22.2301 76.6987 20.9649 76.0914 19.8515C71.9415 12.4121 77.5085 7.70551 83.4802 11.7036C84.543 12.4121 85.6564 12.9688 86.871 13.3737C91.3751 14.7907 93.9562 18.7887 91.1221 22.7868C90.363 23.8496 89.7051 24.963 89.3002 26.1776C86.7192 33.3133 79.0267 32.0987 77.4072 23.4953ZM99.2194 33.0603C96.2336 35.1352 92.2861 34.5786 90.2618 31.6939C89.199 30.125 89.7051 27.8983 91.3752 27.0885C93.7031 25.9245 96.8915 26.38 99.0676 27.6958C101.041 28.9104 101.092 31.7445 99.2194 33.0603ZM105.191 20.8131C104.635 25.2666 99.5737 26.9873 95.5756 24.4063C93.8043 23.2423 93.3489 20.8131 94.7153 19.1936C96.2842 17.3717 99.1688 16.3089 101.598 16.4102C103.825 16.562 105.495 18.5863 105.191 20.8131Z" fill="white"/>
</svg>
