<svg width="14" height="12" viewBox="0 0 14 12" fill="none" xmlns="http://www.w3.org/2000/svg">
    <path d="M11.9008 0.516521C12.5088 0.820521 12.9808 1.24452 13.3168 1.78852C13.6528 2.31652 13.8048 2.95652 13.7728 3.70852C13.7408 4.46052 13.4848 5.23652 13.0048 6.03652C12.7968 6.37252 12.5328 6.72452 12.2128 7.09252C11.9088 7.44452 11.6288 7.74852 11.3728 8.00452C11.1328 8.24452 10.7088 8.60452 10.1008 9.08452C9.49283 9.54852 9.03684 9.89252 8.73284 10.1165C8.44484 10.3405 7.84483 10.7885 6.93283 11.4605C6.06883 10.7565 5.49284 10.2845 5.20484 10.0445C4.91684 9.80452 4.47683 9.43652 3.88483 8.94052C3.30883 8.42852 2.90083 8.04452 2.66083 7.78852C2.43683 7.53252 2.17284 7.22052 1.86884 6.85252C1.58084 6.46852 1.34084 6.10052 1.14884 5.74852C0.700838 4.90052 0.484828 4.11652 0.500828 3.39652C0.516828 2.66052 0.70083 2.02852 1.05283 1.50052C1.40483 0.956523 1.89283 0.556522 2.51683 0.300521C3.36483 -0.0834784 4.26084 -0.0994782 5.20484 0.252522C6.14884 0.604522 6.80482 1.20452 7.17282 2.05252C7.57282 1.22052 8.25283 0.652522 9.21283 0.348522C10.1728 0.0445219 11.0688 0.100522 11.9008 0.516521Z" fill="white"/>
</svg>
