<svg width="44" height="45" viewBox="0 0 44 45" fill="none" xmlns="http://www.w3.org/2000/svg">
<g style="mix-blend-mode:multiply">
<circle cx="21.6688" cy="22.4439" r="21.6336" fill="#006ED2"/>
</g>
<path fill-rule="evenodd" clip-rule="evenodd" d="M25.7526 28.3097L21.1602 23.7173L21.7663 23.1111L26.3587 27.7036C26.7338 28.0786 27.3544 28.0786 27.7294 27.7036C28.1044 27.3285 28.1044 26.7079 27.7294 26.3329L26.4155 25.0191L27.0217 24.4129L28.3355 25.7268C29.0453 26.4366 29.0453 27.5999 28.3355 28.3097C27.6257 29.0195 26.4624 29.0195 25.7526 28.3097Z" fill="white"/>
<path fill-rule="evenodd" clip-rule="evenodd" d="M25.0576 26.3777L26.3714 27.6916C27.0812 28.4014 27.0812 29.5647 26.3714 30.2745C25.6616 30.9843 24.4983 30.9843 23.7885 30.2745L24.3946 29.6684C24.7696 30.0434 25.3902 30.0434 25.7652 29.6684C26.1403 29.2934 26.1403 28.6728 25.7652 28.2977L24.4514 26.9839L25.0576 26.3777Z" fill="white"/>
<path fill-rule="evenodd" clip-rule="evenodd" d="M17.1982 20.4267C17.1728 20.4521 17.1728 20.4941 17.1982 20.5196C17.8987 21.2201 19.0497 21.2201 19.7501 20.5196L22.414 17.8558C23.0635 17.2062 24.1304 17.2062 24.78 17.8558L30.3849 23.4607C30.6754 23.7512 30.8563 24.108 30.9277 24.4811C33.3479 22.0179 33.3346 18.0762 30.8877 15.6293C28.4274 13.169 24.4559 13.169 21.9956 15.6293L17.1982 20.4267ZM30.3849 26.2365C29.6148 27.0066 28.3792 27.0066 27.6091 26.2365L23.1251 21.7526L23.7313 21.1464L28.2153 25.6304C28.6505 26.0657 29.3435 26.0657 29.7787 25.6304C30.214 25.1951 30.214 24.5022 29.7787 24.0669L24.1738 18.4619C23.8591 18.1472 23.3349 18.1472 23.0201 18.4619L20.3563 21.1258C19.321 22.161 17.6273 22.161 16.5921 21.1258C16.2318 20.7655 16.2318 20.1808 16.5921 19.8205L21.3894 15.0232C24.1845 12.2281 28.6988 12.2281 31.4938 15.0232C34.2889 17.8182 34.2889 22.3325 31.4938 25.1276L30.3849 26.2365Z" fill="white"/>
<path fill-rule="evenodd" clip-rule="evenodd" d="M12.4494 15.6294C9.98907 18.0897 9.98907 22.0612 12.4494 24.5215L15.2338 27.3059L14.6276 27.912L11.8432 25.1276C9.04815 22.3326 9.04815 17.8183 11.8432 15.0232C14.6383 12.2282 19.1526 12.2282 21.9476 15.0232L21.3415 15.6294C18.8812 13.1691 14.9097 13.1691 12.4494 15.6294Z" fill="white"/>
<path fill-rule="evenodd" clip-rule="evenodd" d="M18.9582 29.6597C18.5831 30.0347 18.5831 30.6553 18.9582 31.0303C19.3332 31.4053 19.9538 31.4053 20.3288 31.0303L21.7391 29.62C22.1324 29.2267 22.1298 28.6236 21.7457 28.2559L21.7424 28.2527L21.7391 28.2494C21.3641 27.8744 20.7435 27.8743 20.3684 28.2494L18.9582 29.6597ZM18.352 31.6364C17.6422 30.9266 17.6422 29.7633 18.352 29.0535L19.7623 27.6432C20.471 26.9345 21.6318 26.9334 22.3419 27.6399C23.0875 28.3573 23.0598 29.5116 22.3452 30.2262L20.935 31.6364C20.2252 32.3462 19.0618 32.3462 18.352 31.6364Z" fill="white"/>
<path fill-rule="evenodd" clip-rule="evenodd" d="M20.9484 31.6487C20.5734 32.0237 20.5734 32.6443 20.9484 33.0193C21.3234 33.3943 21.944 33.3943 22.319 33.0193L23.7293 31.609C24.1202 31.2181 24.1103 30.603 23.7361 30.2451L23.7327 30.2418L23.7293 30.2384C23.3543 29.8634 22.7337 29.8634 22.3587 30.2384L20.9484 31.6487ZM20.3423 33.6255C19.6325 32.9157 19.6325 31.7523 20.3423 31.0425L21.7525 29.6322C22.4612 28.9236 23.622 28.9224 24.3321 29.6289C25.0634 30.332 25.0524 31.4983 24.3355 32.2152L22.9252 33.6255C22.2154 34.3353 21.0521 34.3353 20.3423 33.6255Z" fill="white"/>
<path fill-rule="evenodd" clip-rule="evenodd" d="M15.0051 25.7063C14.63 26.0813 14.63 26.7019 15.0051 27.0769C15.3801 27.4519 16.0007 27.4519 16.3757 27.0769L17.786 25.6666C18.1769 25.2757 18.167 24.6606 17.7928 24.3027L17.7893 24.2994L17.786 24.296C17.4109 23.921 16.7904 23.921 16.4153 24.296L15.0051 25.7063ZM14.3989 27.6831C13.6891 26.9733 13.6891 25.8099 14.3989 25.1001L15.8092 23.6899C16.5178 22.9812 17.6786 22.9801 18.3887 23.6865C19.12 24.3896 19.109 25.5559 18.3921 26.2728L16.9818 27.6831C16.272 28.3929 15.1087 28.3929 14.3989 27.6831Z" fill="white"/>
<path fill-rule="evenodd" clip-rule="evenodd" d="M16.9836 27.6828C16.6085 28.0579 16.6085 28.6785 16.9836 29.0535C17.3586 29.4285 17.9792 29.4285 18.3542 29.0535L19.7645 27.6432C20.1554 27.2523 20.1455 26.6371 19.7713 26.2792L19.7678 26.2759L19.7645 26.2726C19.3895 25.8975 18.7689 25.8975 18.3938 26.2726L16.9836 27.6828ZM16.3774 29.6596C15.6676 28.9498 15.6676 27.7865 16.3774 27.0767L17.7877 25.6664C18.4964 24.9577 19.6572 24.9566 20.3673 25.6631C21.0985 26.3662 21.0875 27.5325 20.3706 28.2494L18.9604 29.6596C18.2506 30.3694 17.0872 30.3694 16.3774 29.6596Z" fill="white"/>
</svg>
